<?xml version="1.0" encoding="UTF-8" standalone="no"?>
<!-- Created with Inkscape (http://www.inkscape.org/) -->

<svg
   width="21cm"
   height="29.700001cm"
   viewBox="0 0 5250 7425.0002"
   version="1.1"
   id="svg1"
   xml:space="preserve"
   inkscape:version="1.3.1 (91b66b0, 2023-11-16)"
   sodipodi:docname="Lid.svg"
   xmlns:inkscape="http://www.inkscape.org/namespaces/inkscape"
   xmlns:sodipodi="http://sodipodi.sourceforge.net/DTD/sodipodi-0.dtd"
   xmlns="http://www.w3.org/2000/svg"
   xmlns:svg="http://www.w3.org/2000/svg"><sodipodi:namedview
     id="namedview1"
     pagecolor="#ffffff"
     bordercolor="#000000"
     borderopacity="0.25"
     inkscape:showpageshadow="2"
     inkscape:pageopacity="0.0"
     inkscape:pagecheckerboard="0"
     inkscape:deskcolor="#d1d1d1"
     inkscape:document-units="mm"
     inkscape:zoom="1.0351333"
     inkscape:cx="338.60374"
     inkscape:cy="586.39791"
     inkscape:window-width="1768"
     inkscape:window-height="1273"
     inkscape:window-x="268"
     inkscape:window-y="40"
     inkscape:window-maximized="0"
     inkscape:current-layer="layer2" /><defs
     id="defs1"><marker
       id="DistanceX"
       orient="auto"
       refX="0"
       refY="0"
       style="overflow:visible"><path
         d="M 3,-3 -3,3 M 0,-5 V 5"
         style="stroke:#000000;stroke-width:0.5"
         id="path1" /></marker><pattern
       id="Hatch"
       patternUnits="userSpaceOnUse"
       width="8"
       height="8"
       x="0"
       y="0"><path
         d="M8 4 l-4,4"
         stroke="#000000"
         stroke-width="0.25"
         linecap="square"
         id="path2" /><path
         d="M6 2 l-4,4"
         stroke="#000000"
         stroke-width="0.25"
         linecap="square"
         id="path3" /><path
         d="M4 0 l-4,4"
         stroke="#000000"
         stroke-width="0.25"
         linecap="square"
         id="path4" /></pattern><symbol
       id="*MODEL_SPACE" /><symbol
       id="*PAPER_SPACE" /><marker
       id="DistanceX-7"
       orient="auto"
       refX="0.0"
       refY="0.0"
       style="overflow:visible"><path
         d="M 3,-3 L -3,3 M 0,-5 L  0,5"
         style="stroke:#000000; stroke-width:0.5"
         id="path1-1" /></marker><pattern
       id="Hatch-5"
       patternUnits="userSpaceOnUse"
       width="8"
       height="8"
       x="0"
       y="0"><path
         d="M8 4 l-4,4"
         stroke="#000000"
         stroke-width="0.25"
         linecap="square"
         id="path2-2" /><path
         d="M6 2 l-4,4"
         stroke="#000000"
         stroke-width="0.25"
         linecap="square"
         id="path3-1" /><path
         d="M4 0 l-4,4"
         stroke="#000000"
         stroke-width="0.25"
         linecap="square"
         id="path4-1" /></pattern><symbol
       id="*MODEL_SPACE-0" /><symbol
       id="*PAPER_SPACE-1" /><marker
       id="DistanceX-8"
       orient="auto"
       refX="0.0"
       refY="0.0"
       style="overflow:visible"><path
         d="M 3,-3 L -3,3 M 0,-5 L  0,5"
         style="stroke:#000000; stroke-width:0.5"
         id="path1-5" /></marker><pattern
       id="Hatch-9"
       patternUnits="userSpaceOnUse"
       width="8"
       height="8"
       x="0"
       y="0"><path
         d="M8 4 l-4,4"
         stroke="#000000"
         stroke-width="0.25"
         linecap="square"
         id="path2-4" /><path
         d="M6 2 l-4,4"
         stroke="#000000"
         stroke-width="0.25"
         linecap="square"
         id="path3-3" /><path
         d="M4 0 l-4,4"
         stroke="#000000"
         stroke-width="0.25"
         linecap="square"
         id="path4-9" /></pattern><symbol
       id="*MODEL_SPACE-05" /><symbol
       id="*PAPER_SPACE-6" /><marker
       id="DistanceX-4"
       orient="auto"
       refX="0.0"
       refY="0.0"
       style="overflow:visible"><path
         d="M 3,-3 L -3,3 M 0,-5 L  0,5"
         style="stroke:#000000; stroke-width:0.5"
         id="path1-0" /></marker><pattern
       id="Hatch-4"
       patternUnits="userSpaceOnUse"
       width="8"
       height="8"
       x="0"
       y="0"><path
         d="M8 4 l-4,4"
         stroke="#000000"
         stroke-width="0.25"
         linecap="square"
         id="path2-6" /><path
         d="M6 2 l-4,4"
         stroke="#000000"
         stroke-width="0.25"
         linecap="square"
         id="path3-4" /><path
         d="M4 0 l-4,4"
         stroke="#000000"
         stroke-width="0.25"
         linecap="square"
         id="path4-6" /></pattern><symbol
       id="*MODEL_SPACE-4" /><symbol
       id="*PAPER_SPACE-3" /><marker
       id="DistanceX-5"
       orient="auto"
       refX="0.0"
       refY="0.0"
       style="overflow:visible"><path
         d="M 3,-3 L -3,3 M 0,-5 L  0,5"
         style="stroke:#000000; stroke-width:0.5"
         id="path1-6" /></marker><pattern
       id="Hatch-53"
       patternUnits="userSpaceOnUse"
       width="8"
       height="8"
       x="0"
       y="0"><path
         d="M8 4 l-4,4"
         stroke="#000000"
         stroke-width="0.25"
         linecap="square"
         id="path2-0" /><path
         d="M6 2 l-4,4"
         stroke="#000000"
         stroke-width="0.25"
         linecap="square"
         id="path3-48" /><path
         d="M4 0 l-4,4"
         stroke="#000000"
         stroke-width="0.25"
         linecap="square"
         id="path4-5" /></pattern><symbol
       id="*MODEL_SPACE-5" /><symbol
       id="*PAPER_SPACE-5" /><marker
       id="DistanceX-2"
       orient="auto"
       refX="0.0"
       refY="0.0"
       style="overflow:visible"><path
         d="M 3,-3 L -3,3 M 0,-5 L  0,5"
         style="stroke:#000000; stroke-width:0.5"
         id="path1-4" /></marker><pattern
       id="Hatch-58"
       patternUnits="userSpaceOnUse"
       width="8"
       height="8"
       x="0"
       y="0"><path
         d="M8 4 l-4,4"
         stroke="#000000"
         stroke-width="0.25"
         linecap="square"
         id="path2-62" /><path
         d="M6 2 l-4,4"
         stroke="#000000"
         stroke-width="0.25"
         linecap="square"
         id="path3-5" /><path
         d="M4 0 l-4,4"
         stroke="#000000"
         stroke-width="0.25"
         linecap="square"
         id="path4-13" /></pattern><symbol
       id="*MODEL_SPACE-9" /><symbol
       id="*PAPER_SPACE-7" /><marker
       id="DistanceX-55"
       orient="auto"
       refX="0.0"
       refY="0.0"
       style="overflow:visible"><path
         d="M 3,-3 L -3,3 M 0,-5 L  0,5"
         style="stroke:#000000; stroke-width:0.5"
         id="path1-8" /></marker><pattern
       id="Hatch-56"
       patternUnits="userSpaceOnUse"
       width="8"
       height="8"
       x="0"
       y="0"><path
         d="M8 4 l-4,4"
         stroke="#000000"
         stroke-width="0.25"
         linecap="square"
         id="path2-7" /><path
         d="M6 2 l-4,4"
         stroke="#000000"
         stroke-width="0.25"
         linecap="square"
         id="path3-9" /><path
         d="M4 0 l-4,4"
         stroke="#000000"
         stroke-width="0.25"
         linecap="square"
         id="path4-4" /></pattern><symbol
       id="*MODEL_SPACE-1" /><symbol
       id="*PAPER_SPACE-61" /></defs><g
     inkscape:groupmode="layer"
     id="layer2"
     inkscape:label="Top"
     style="display:inline"><path
       style="display:inline;fill:#000000"
       d="m 1386.2175,625.60963 c -1.9115,2.6141 -2.4735,2.57777 -17.154,-1.10875 -8.3479,-2.09627 -31.9305,-8.47827 -52.4058,-14.18223 -74.6901,-20.80692 -80.0461,-22.12794 -83.0965,-20.49541 -3.9595,2.11906 -15.5007,1.90898 -17.3471,-0.31576 -0.8396,-1.01164 -1.9804,-5.85087 -2.5351,-10.75383 l -1.0085,-8.91448 -8.9581,-0.81498 c -9.6459,-0.87756 -16.9876,-0.003 -16.9876,2.02322 0,0.69245 1.6424,6.15165 3.6498,12.13156 5.5335,16.48403 5.2434,17.84474 -4.7447,22.25245 -4.617,2.03747 -8.5618,3.86567 -8.7661,4.06269 -0.2044,0.19701 0.3037,2.29521 1.129,4.66266 1.0269,2.94575 3.4483,5.2094 7.6711,7.17136 4.3646,2.02778 6.9876,4.54038 8.9618,8.58449 2.5351,5.19307 2.602,6.26237 0.7299,11.6559 -1.3081,3.76883 -3.774,7.0136 -6.7496,8.8816 -5.1391,3.22617 -5.3105,3.52959 -3.5557,6.29584 0.9587,1.51134 3.1433,1.25488 10.8438,-1.27302 16.1449,-5.30001 25.4415,-1.02322 26.9545,12.40017 1.0267,9.10941 -1.6571,12.71524 -11.8574,15.93058 -6.7698,2.13401 -8.2073,3.16214 -8.2073,5.87034 0,1.80576 -0.6356,3.91888 -1.4126,4.69582 -0.9102,0.9102 -0.1421,5.41328 2.1595,12.66115 1.9646,6.1867 3.2278,12.14562 2.8071,13.24206 -0.9695,2.5265 -20.6299,8.77061 -25.468,8.0886 -3.0825,-0.43452 -4.2259,-2.20241 -7.5278,-11.63883 -3.52,-10.05971 -9.4976,-18.80186 -12.8562,-18.80186 -2.4344,0 -7.2637,-7.60242 -8.2086,-12.92241 -0.5204,-2.92962 -2.6946,-10.55783 -4.8317,-16.95158 -3.2136,-9.61508 -4.5043,-11.77108 -7.4648,-12.46995 -1.9686,-0.46474 -4.3677,-2.4601 -5.3313,-4.43413 -3.9799,-8.15353 -6.8761,-15.52525 -7.7194,-19.64828 -0.6847,-3.34785 -1.7955,-4.48532 -4.7146,-4.82781 -3.0182,-0.35412 -4.468,-1.9572 -6.9156,-7.64683 -4.715,-10.96027 -5.2919,-15.60875 -2.3416,-18.86877 2.4153,-2.66893 2.2367,-3.67701 -3.9387,-22.22416 -5.309,-15.945 -7.01,-19.50847 -9.4869,-19.87495 -4.1821,-0.61878 -6.9967,-4.19585 -9.7403,-12.37878 -2.9642,-8.84109 -2.9791,-14.03038 -0.044,-15.15684 3.3044,-1.26802 1.3941,-7.53881 -3.8699,-12.70384 -2.3476,-2.30341 -4.2683,-5.00383 -4.2683,-6.00093 0,-0.99711 -1.6447,-4.23648 -3.6548,-7.1986 -3.6296,-5.34847 -17.3853,-42.2032 -22.1544,-59.35675 -2.4338,-8.75408 -2.4238,-9.00971 0.4482,-11.36314 1.616,-1.32418 5.0546,-5.1649 7.6414,-8.53493 2.8607,-3.72693 7.82,-7.65227 12.6593,-10.01989 7.0481,-3.44831 9.0821,-3.7931 17.8226,-3.02122 16.3182,1.44108 22.948,2.64686 24.0926,4.38179 2.1901,3.31966 21.5381,63.43707 21.4975,66.79647 -0.1129,9.36117 1.5576,25.27324 2.7819,26.49749 0.8668,0.86682 4.1327,0.46579 8.7816,-1.07832 10.8536,-3.60498 12.3698,-2.58938 17.5635,11.76407 2.4726,6.83319 4.4955,13.04661 4.4955,13.8076 0,2.45336 2.2958,1.50919 12.288,-5.05372 7.6588,-5.03033 11.6797,-6.65537 18.3963,-7.43492 l 8.5953,-0.99759 0.7796,-6.06934 c 0.4288,-3.33814 0.9526,-7.71175 1.1641,-9.71914 0.3805,-3.61197 0.5358,-3.65147 14.9837,-3.81085 13.2665,-0.14636 17.7309,-1.03626 48.9073,-9.74884 93.1701,-26.03742 102.9003,-28.47998 107.0738,-26.87846 1.9052,0.73109 2.4201,2.91946 2.4201,10.28522 0,5.70818 -0.7115,9.94419 -1.8249,10.86361 -1.913,1.57988 -20.1349,7.16331 -61.6816,18.90004 l -24.8186,7.01115 -0.4247,10.34604 -0.4246,10.34603 43.2901,0.75451 c 34.5754,0.60262 43.5467,1.15967 44.5649,2.76713 1.9045,3.00695 1.5808,17.95636 -0.4325,19.96963 -1.2828,1.28286 -13.2041,1.7519 -44.5275,1.7519 h -42.7757 v 10.85102 c 0,9.08925 0.4148,10.96684 2.5549,11.5644 55.9822,15.6318 83.2184,23.57882 84.6753,24.70672 2.4793,1.91927 2.3671,17.27469 -0.1513,20.71881 z m -12.258,-20.88544 c -5.4199,-1.63139 -24.3076,-6.97423 -41.9727,-11.87299 -17.665,-4.89876 -33.1037,-9.44801 -34.3081,-10.10945 -1.6922,-0.9293 -2.1899,-4.15264 -2.1899,-14.18278 V 555.5788 l 43.7976,-0.86767 c 24.0887,-0.47722 43.9619,-0.96994 44.1626,-1.09494 0.2007,-0.125 0.365,-3.51209 0.365,-7.52687 0,-4.01478 -0.1643,-7.42961 -0.365,-7.58851 -0.2007,-0.1589 -20.0739,-0.65162 -44.1626,-1.09494 l -43.7976,-0.80603 -0.4359,-10.9322 c -0.6994,-17.53792 -1.991,-16.25178 23.4046,-23.30623 12.2589,-3.4053 31.8148,-8.96082 43.4577,-12.34559 l 21.1688,-6.15414 0.4392,-8.35046 0.4393,-8.35045 -4.0891,0.97755 c -4.1921,1.0022 -44.5764,12.00056 -105.8325,28.82267 -32.3741,8.89053 -35.2889,9.44526 -45.5511,8.66913 l -10.9639,-0.8292 -0.4364,10.05979 -0.4363,10.05978 -9.7343,0.83709 c -5.612,0.48259 -11.1763,1.88093 -13.1393,3.30198 -10.839,7.84647 -14.1008,9.75172 -18.0281,10.5306 l -4.3558,0.86389 -4.9535,-14.7014 c -2.7244,-8.08577 -5.7624,-14.7014 -6.7511,-14.7014 -0.9886,0 -4.5906,0.98545 -8.0043,2.18988 -3.4138,1.20443 -7.3739,2.18988 -8.8003,2.18988 -3.757,0 -5.9169,-7.36513 -6.6726,-22.75342 -0.5659,-11.5209 -1.9523,-17.16123 -10.5505,-42.92085 l -9.899,-29.65691 -7.9524,-2.12793 c -10.6148,-2.84035 -22.9494,-2.83853 -28.4237,0.004 -2.4267,1.26016 -8.2439,6.43743 -12.9271,11.50505 l -8.5148,9.21386 9.1373,27.54642 c 5.0255,15.15053 10.6872,29.83038 12.5815,32.6219 1.8944,2.79152 4.3654,7.27987 5.4911,9.97411 1.1258,2.69425 3.3235,5.58191 4.884,6.41704 1.5688,0.83959 3.6707,4.4956 4.7017,8.1779 1.6775,5.99157 1.5944,6.95804 -0.8293,9.63614 -2.62,2.89504 -2.6154,3.20427 0.1666,11.27954 2.4602,7.14107 3.4556,8.4056 7.1136,9.03686 4.0491,0.69875 4.5919,1.74771 11.3144,21.86448 3.8837,11.62179 7.0612,22.06079 7.0612,23.19777 0,1.13699 -1.1497,2.90983 -2.5548,3.93966 -2.4243,1.77672 -2.4057,2.30723 0.3649,10.38038 2.4785,7.22185 3.5052,8.57573 6.792,8.95616 2.6438,0.30601 4.3417,1.69539 5.3525,4.37976 0.8142,2.16236 3.2352,8.69456 5.38,14.51599 3.3581,9.11451 4.3861,10.58442 7.4022,10.58442 2.5839,0 4.007,1.24451 5.4256,4.74474 1.944,4.7964 5.5589,17.08619 8.3748,28.47233 1.8964,7.66858 7.1617,11.78293 12.0553,9.42014 3.1639,-1.52768 3.1486,-1.56401 -0.6973,-1.66065 -4.8913,-0.12292 -8.4774,-4.94387 -8.4774,-11.39667 0,-4.01461 0.7834,-5.16029 4.7448,-6.93928 10.6425,-4.77937 40.9774,-15.35574 44.6281,-15.55976 l 3.9142,-0.21874 -3.7832,-0.58584 c -2.0807,-0.32221 -8.2262,1.08653 -13.6567,3.13053 -5.4304,2.04401 -10.4139,3.38237 -11.0744,2.97413 -0.6606,-0.40823 -2.0017,-3.16829 -2.9803,-6.13347 -1.5881,-4.81213 -1.488,-5.55482 0.9319,-6.91428 13.8342,-7.77173 14.496,-19.95336 1.3989,-25.74687 -4.8988,-2.16696 -6.8037,-4.0756 -8.6347,-8.65174 -1.2921,-3.22927 -2.3493,-6.76346 -2.3493,-7.85375 0,-1.09028 3.9558,-3.46168 8.7906,-5.26977 4.8348,-1.8081 9.0644,-3.73065 9.3992,-4.27234 0.3348,-0.5417 -1.3216,-6.72915 -3.6808,-13.74989 -5.2303,-15.56456 -5.2639,-16.70606 -0.5447,-18.5003 5.4015,-2.05363 27.404,-1.80925 29.5413,0.32812 0.9636,0.96355 1.762,5.06957 1.7743,9.1245 0.033,11.01167 0.7391,11.56347 13.3185,10.4137 10.0779,-0.92112 12.5677,-0.47726 39.9462,7.12148 65.1304,18.07652 103.5662,28.51339 108.2245,29.3873 l 4.9193,0.92286 v -8.04984 -8.04984 z m 3.9043,14.36111 c -0.8637,0 -11.8679,-2.91574 -24.4536,-6.47943 -12.5858,-3.56368 -44.2346,-12.45936 -70.3307,-19.76816 -26.096,-7.3088 -48.3584,-14.19657 -49.4719,-15.30615 -2.7313,-2.7217 -1.0046,-6.6236 2.9311,-6.6236 2.911,0 102.388,27.27106 130.8512,35.87211 11.5628,3.49405 12.0443,3.81281 12.0443,7.9724 0,2.38306 -0.7067,4.33283 -1.5704,4.33283 z m -74.778,-26.31384 c -34.6907,-9.67911 -64.0594,-17.93999 -65.2638,-18.35751 -1.4371,-0.49819 -1.688,-0.27198 -0.7299,0.65806 0.8029,0.77946 12.2998,4.40035 25.5485,8.04641 13.2488,3.64606 42.9654,11.91626 66.0369,18.37821 23.0716,6.46195 42.452,11.70735 43.0677,11.65646 2.7734,-0.22927 -9.6572,-3.91931 -68.6594,-20.38163 z m 70.8737,-43.23943 c -7.2315,1.1953 -130.0588,1.20385 -136.0306,0.009 -3.6668,-0.73335 -4.5457,-1.57401 -4.1973,-4.01478 0.4406,-3.08693 0.4466,-3.08723 69.7868,-3.49198 38.1404,-0.22262 70.8243,-0.0459 72.631,0.3928 5.6044,1.36078 4.1574,6.05536 -2.1899,7.10449 z m 2.1546,-68.09503 c -3.234,1.47351 -30.745,9.45644 -88.6548,25.72516 -49.065,13.78392 -51.2887,14.34745 -53.4074,13.53442 -2.5582,-0.98167 -2.7125,-5.87653 -0.2447,-7.76294 1.9923,-1.52292 132.4232,-38.07966 140.5973,-39.40612 4.5959,-0.74582 5.0297,-0.50517 5.0297,2.79026 0,2.33467 -1.1708,4.13994 -3.3201,5.11922 z m -71.2887,15.05527 c -75.3494,20.95848 -68.8319,19.05676 -68.0366,19.85207 0.3557,0.3557 30.0143,-7.58785 65.908,-17.65234 35.8937,-10.06448 65.6536,-18.29906 66.133,-18.29906 0.4794,0 0.5291,-0.34256 0.1104,-0.76125 -0.4187,-0.41868 -29.2704,7.16858 -64.1148,16.86058 z m -17.0011,83.16466 c -5.2332,-0.0216 -53.3354,-14.35129 -54.5726,-16.25722 -0.7074,-1.08968 -1.1181,-3.29516 -0.9128,-4.90107 0.3572,-2.79339 1.6221,-2.93698 29.2068,-3.31568 l 28.8334,-0.39585 v 12.44018 c 0,10.87853 -0.3207,12.43886 -2.5548,12.42964 z m -26.2786,-21.55775 c -20.8569,-0.33082 -25.1836,-0.0467 -25.1836,1.65383 0,1.76517 24.0843,9.37932 47.1606,14.90959 l 4.0929,0.98088 -0.4431,-8.57242 -0.4432,-8.57242 z m 0.3192,-20.76938 c -30.752,0 -31.2643,-0.13555 -29.3492,-7.76622 0.7542,-3.00493 3.862,-4.2211 28.0106,-10.96147 14.9392,-4.16985 27.7676,-7.20738 28.5075,-6.75008 0.7399,0.4573 1.3453,6.37688 1.3453,13.15462 v 12.32315 z m 24.4994,-20.89775 c -1.949,-1.12355 -49.0197,12.80834 -49.6425,14.6931 -0.4671,1.41359 5.1827,1.8249 25.0672,1.8249 h 25.6703 v -7.9434 c 0,-4.36887 -0.4927,-8.22744 -1.095,-8.5746 z m -58.6367,61.62326 c -0.7097,1.1207 -2.267,1.66283 -3.4607,1.20474 -4.9645,-1.90502 -4.9798,-65.89047 -0.016,-67.79514 1.2027,-0.46152 2.7673,0.0778 3.477,1.1985 1.6833,2.65844 1.6833,62.73347 0,65.3919 z m -12.5817,-16.41666 c -1.2869,0.49385 -6.073,0.51578 -10.6357,0.0487 -10.8717,-1.11284 -16.3255,-6.51725 -16.3255,-16.17783 0,-5.25802 0.8256,-7.18049 4.7173,-10.98537 4.4467,-4.34744 5.2632,-4.58768 14.2342,-4.18801 l 9.517,0.42399 0.4163,14.99028 c 0.3515,12.65645 0.052,15.13009 -1.9236,15.8882 z m -9.3123,-27.22869 c -6.2139,0 -7.6738,0.59886 -10.9492,4.4915 -7.031,8.35585 -0.5512,18.86722 11.6307,18.86722 h 6.4883 v -11.67936 -11.67936 z m 3.1326,13.97573 c -3.2007,4.67443 -12.0219,3.02828 -12.0219,-2.24345 0,-2.88845 3.6088,-7.35252 5.9439,-7.35252 1.6309,0 7.2046,5.38842 7.173,6.93462 -0.012,0.60222 -0.505,1.79983 -1.095,2.66135 z m -6.2684,-5.21621 c -0.7556,0 -1.3738,0.98545 -1.3738,2.18988 0,2.25764 1.7227,2.90043 3.3668,1.25629 1.1664,-1.16637 -0.1521,-3.44617 -1.993,-3.44617 z m -16.8072,99.90022 c -2.7084,2.70841 -10.9742,3.04109 -13.473,0.54226 -2.4988,-2.49884 -2.1661,-10.76456 0.5423,-13.47298 3.0976,-3.09764 9.8445,-2.89977 12.8087,0.37566 3.0519,3.37226 3.112,9.56502 0.122,12.55506 z m -5.8632,-10.55059 c -1.6761,-0.23949 -3.8226,0.49845 -4.7699,1.63986 -3.4983,4.21521 2.3979,10.1114 6.6131,6.61309 2.9821,-2.47493 1.8082,-7.73125 -1.8432,-8.25295 z m 2.9731,-70.37067 c -2.8967,0 -4.2127,-1.16891 -5.9221,-5.26017 -3.1524,-7.54464 -2.2362,-12.98883 2.1857,-12.98883 2.8705,0 3.8366,1.16412 5.4525,6.56964 2.9113,9.73908 2.6263,11.67936 -1.7161,11.67936 z m -5.4002,37.63057 c -4.2155,1.54126 -18.0277,6.35145 -30.6938,10.68931 -24.9318,8.53863 -25.8052,8.52275 -25.8557,-0.47002 -0.016,-2.94144 1.1017,-4.55854 4.2935,-6.20909 6.6604,-3.44423 51.1658,-18.28206 54.8362,-18.28206 2.4827,0 3.477,1.08729 4.172,4.56225 0.5018,2.50924 0.9124,5.08989 0.9124,5.73479 0,0.64489 -3.4491,2.43356 -7.6646,3.97482 z m 0.3121,-10.2537 c -4.0684,0.70128 -51.4677,17.72013 -52.6527,18.90506 -0.6544,0.65443 -0.6802,2.01454 -0.057,3.02248 0.8589,1.3898 6.753,-0.0818 24.3928,-6.09019 32.1461,-10.94947 31.585,-10.70213 30.9782,-13.6551 -0.2883,-1.40284 -1.4858,-2.38485 -2.6611,-2.18225 z m -1.3021,-9.85784 c -3.0403,0 -4.4449,-3.15754 -13.2074,-29.69208 -3.4983,-10.59341 -4.3144,-14.79167 -3.1095,-15.99655 1.2049,-1.20488 2.1496,-1.07531 3.5995,0.49369 2.0786,2.24933 15.5323,39.60712 15.5323,43.12966 0,1.13591 -1.2667,2.06528 -2.8149,2.06528 z m -6.8045,87.39257 c -4.4877,1.71735 -9.1185,3.12245 -10.2908,3.12245 -2.7155,0 -7.7542,-10.98423 -7.7962,-16.99554 -0.028,-4.00295 0.7144,-4.88488 5.8372,-6.93461 10.2933,-4.11858 13.632,-2.60354 18.1637,8.24256 3.404,8.14677 2.9145,9.18671 -5.9139,12.56514 z m 0.7485,-13.15503 c -2.7816,-5.45247 -3.4013,-5.86772 -7.5254,-5.04289 -7.688,1.53759 -8.5439,3.09602 -5.7865,10.5358 2.5869,6.97997 3.1149,7.12669 12.629,3.50945 4.4774,-1.70233 4.4683,-1.58233 0.6829,-9.00236 z m -0.6244,-26.05535 c -1.2076,1.00226 -2.7273,3.87396 -3.3771,6.38155 -1.037,4.00195 -2.4867,5.06063 -11.8597,8.66069 -5.873,2.25578 -11.5514,3.76634 -12.6186,3.3568 -2.3683,-0.9088 -8.3203,-19.87251 -7.6556,-24.39148 0.3987,-2.71056 2.9105,-4.06881 15.0221,-8.12307 7.9988,-2.67756 15.3183,-4.86828 16.2655,-4.86828 1.9012,0 6.4191,10.17023 6.4191,14.44998 0,1.49134 -0.988,3.53156 -2.1957,4.53381 z m -5.0049,-13.62915 c -0.7684,-0.76837 -6.7203,0.6304 -14.4545,3.39701 l -13.1483,4.70325 2.0886,6.77681 c 1.1487,3.72724 2.4908,8.29415 2.9826,10.1487 0.4917,1.85454 1.6342,3.09992 2.5389,2.7675 0.9046,-0.33241 5.05,-1.72377 9.212,-3.09191 6.2952,-2.06939 7.7221,-3.1925 8.4884,-6.68141 0.5066,-2.30664 1.9209,-5.02368 3.143,-6.03788 2.3076,-1.91517 1.7796,-9.3517 -0.8507,-11.98207 z m 0.8221,-30.17328 c -1.2532,0 -4.5043,-7.21555 -8.7157,-19.34393 -8.6839,-25.0082 -9.2257,-27.3735 -6.2704,-27.3735 3.0739,0 5.3932,4.84108 11.7026,24.42667 5.713,17.73412 6.3842,22.29076 3.2835,22.29076 z m -8.5856,-54.08255 c -2.6097,0.92402 -16.2084,5.66121 -30.2194,10.52711 l -25.4747,8.84707 -2.6288,-3.24642 c -3.0641,-3.78395 -3.3938,-7.81219 -0.8039,-9.81947 2.9455,-2.28285 53.557,-19.38204 57.3685,-19.38204 3.6815,0 6.503,3.69687 6.503,8.52072 0,1.92344 -1.5682,3.42828 -4.7447,4.55303 z m -0.4653,-7.69901 c -0.6817,-1.7763 -5.7131,-0.53365 -28.1035,6.94086 -18.6092,6.21228 -27.4148,9.83299 -27.719,11.39763 -0.2452,1.2612 0.1843,2.68252 0.9545,3.1585 1.0889,0.67299 24.9169,-7.0087 53.8733,-17.36773 2.0664,-0.73923 2.1548,-1.10608 0.9947,-4.12926 z m -9.7542,69.14931 c -6.6244,2.56308 -14.4134,4.98403 -17.3089,5.37988 l -5.2646,0.71974 -5.8511,-16.58814 c -9.8005,-27.78439 -9.7518,-27.59135 -7.5062,-29.7362 2.1524,-2.0558 27.1959,-10.94062 30.8382,-10.94062 1.2239,0 2.6963,1.14969 3.2719,2.55486 2.6428,6.45206 13.865,40.58466 13.865,42.17077 0,0.97876 -5.4199,3.87664 -12.0443,6.43971 z m 1.1277,-27.80662 c -3.0284,-9.23399 -6.0383,-17.37021 -6.6887,-18.08049 -1.0336,-1.12866 -21.6308,5.04193 -26.1473,7.83329 -1.0915,0.67454 0.4759,6.97488 4.8749,19.59524 3.5659,10.23057 6.882,18.9996 7.3692,19.48672 0.9008,0.90082 13.6393,-2.69318 22.5433,-6.36027 2.812,-1.15811 4.6162,-2.80159 4.2293,-3.85256 -0.371,-1.00807 -3.1524,-9.38794 -6.1807,-18.62193 z m -14.9969,-44.52777 c -7.7443,3.15889 -27.5437,9.4897 -29.6787,9.4897 -2.2291,0 -7.1843,-9.06238 -7.1843,-13.13915 0,-2.71465 26.0579,-13.13941 32.8435,-13.13941 1.8556,0 6.5743,9.86377 6.5743,13.74259 0,1.10228 -1.1497,2.4731 -2.5548,3.04627 z m -4.7798,-11.47704 c -1.0744,-1.15836 -21.6131,4.86535 -25.9351,7.60642 -2.4378,1.5461 0.1545,8.98056 3.1314,8.98056 1.1287,0 6.565,-1.66695 12.0805,-3.70432 5.5156,-2.03738 10.8948,-4.00503 11.9538,-4.37257 1.9471,-0.67571 1.1919,-5.89854 -1.2306,-8.51009 z m 2.5899,-11.52582 c -1.0037,0.79372 -10.3083,4.2491 -20.677,7.67863 -18.1828,6.01412 -18.9234,6.13807 -20.859,3.49098 -4.4495,-6.0851 -2.1681,-8.03985 17.0823,-14.63671 21.2863,-7.29449 24.1393,-7.64249 25.3584,-3.09319 1.2173,4.54211 1.1646,4.92389 -0.9047,6.56029 z m -4.6035,-5.46535 c -2.8914,0 -31.9737,10.1861 -33.6221,11.77617 -0.7494,0.72294 -1.032,1.645 -0.628,2.04903 1.1272,1.12721 36.2987,-10.97856 36.2987,-12.49375 0,-0.7323 -0.9218,-1.33145 -2.0486,-1.33145 z m -0.5062,-8.59912 c -11.5665,4.45988 -36.4263,11.89182 -40.3347,12.05819 -4.4804,0.19072 -4.4804,0.19072 -12.2949,-21.70807 -4.298,-12.04434 -7.9287,-24.49891 -8.0683,-27.67682 l -0.2538,-5.77803 19.7089,-6.91088 c 10.84,-3.80098 21.5068,-6.9493 23.7042,-6.99627 4.6745,-0.0999 5.2309,0.99355 15.0895,29.65795 7.6886,22.35508 7.9464,25.23422 2.4491,27.35393 z m -13.3938,-45.66098 -3.1489,-8.27263 -19.2846,6.45013 c -10.6066,3.54758 -20.0744,6.74483 -21.0396,7.105 -1.2208,0.45558 0.7302,7.89646 6.4112,24.45125 4.4914,13.08801 8.3956,24.06406 8.676,24.39121 0.5944,0.69322 24.0938,-6.2124 35.0902,-10.3117 l 7.5448,-2.81257 -5.5501,-16.36403 c -3.0525,-9.00022 -6.967,-20.08672 -8.699,-24.63666 z m -26.0241,-9.1711 c -12.2658,4.08895 -12.0443,4.07631 -12.0443,0.6872 0,-3.35293 6.675,-6.94054 15.6117,-8.39076 4.0792,-0.66196 4.8272,-0.34262 4.8272,2.0609 0,2.16482 -2.0053,3.51271 -8.3946,5.64266 z m 131.9068,238.02293 c -1.1225,-2.68654 -2.8331,-5.37418 -3.8013,-5.97254 -0.9681,-0.59837 -0.6221,0.64923 0.7691,2.77243 1.7843,2.7232 2.2999,5.57149 1.7503,9.66922 -0.4285,3.19488 -0.492,5.80887 -0.1411,5.80887 0.5042,0 2.9327,-5.02906 3.3713,-6.98151 0.051,-0.22653 -0.8258,-2.60994 -1.9483,-5.29647 z m -5.2226,1.42362 c -1.8563,-4.88236 -8.2397,-4.99398 -18.2851,-0.31974 -4.0148,1.86811 -12.7127,5.19819 -19.3288,7.40017 -6.616,2.20198 -12.3691,4.55376 -12.7847,5.22617 -1.1168,1.80699 1.6557,8.25166 3.9244,9.12224 2.6149,1.00343 42.0866,-11.70308 45.3431,-14.59663 3.0056,-2.67057 2.917,-2.135 1.1311,-6.83221 z m -13.7266,23.99364 c -0.3032,0 -1.4528,1.14968 -2.5549,2.55486 -1.8159,2.31551 -1.7643,2.36715 0.5512,0.5512 2.4319,-1.9072 3.2053,-3.10606 2.0037,-3.10606 z m -14.0321,11.90374 -8.5559,2.88938 1.5494,4.64778 c 2.3357,7.00644 3.0864,7.29714 11.773,4.55894 l 8.0328,-2.53211 -2.1217,-6.22669 -2.1216,-6.22669 z m 117.3108,-32.44858 c -4.5999,3.61828 -5.2757,3.66812 -10.8251,0.79843 -3.4895,-1.8045 -4.3072,-3.17054 -4.3072,-7.19532 0,-6.25852 3.2326,-9.55626 9.3675,-9.55626 9.3389,0 13.0367,10.23304 5.7648,15.95315 z m -3.6308,-11.66859 c -2.5362,-1.35731 -3.6051,-1.15047 -5.8966,1.14099 -3.2301,3.23016 -2.353,7.159 1.8996,8.50872 6.2509,1.98398 9.7863,-6.55134 3.997,-9.64971 z m -35.7871,-182.50072 c -4.444,3.49567 -5.4167,3.63004 -9.7535,1.34732 -4.3063,-2.26666 -5.33,-4.07411 -5.3564,-9.45714 -0.027,-5.54377 2.9974,-8.32998 9.0425,-8.32998 9.0912,0 13.1132,10.89761 6.0674,16.4398 z m -2.6529,-11.51526 c -4.1911,-3.47829 -10.6196,1.32026 -8.6489,6.45593 2.0383,5.31166 10.7687,3.58134 10.7687,-2.13431 0,-1.40928 -0.9539,-3.354 -2.1198,-4.32162 z m -34.3781,284.62619 c -5.9922,5.99211 -16.0592,1.96374 -16.0592,-6.42615 0,-2.79672 1.1145,-5.80924 2.6699,-7.21681 5.8751,-5.31696 16.3091,-0.79172 16.3091,7.07333 0,2.00739 -1.3139,4.96372 -2.9198,6.56963 z m -4.5577,-11.77455 c -2.5463,-1.36273 -3.6119,-1.14365 -5.9862,1.23069 -2.3744,2.37434 -2.5934,3.43995 -1.2307,5.98624 1.8317,3.42247 5.8539,4.05464 8.5627,1.3458 2.7089,-2.70884 2.0767,-6.73107 -1.3458,-8.56273 z m -4.7793,-312.4883 c -6.0347,10.88791 -25.3137,8.97534 -27.8927,-2.76709 -2.5623,-11.66604 3.5354,-20.43093 14.2138,-20.43093 4.6368,0 6.7766,0.98782 10.7525,4.96372 5.4547,5.45464 6.4774,11.82751 2.9264,18.2343 z m -5.5167,-15.43935 c -4.0415,-4.30198 -11.7382,-4.52554 -15.8047,-0.45908 -4.0146,4.01465 -3.8749,12.13573 0.2753,16.00225 10.2592,9.55789 25.1289,-5.32499 15.5294,-15.54317 z m -4.7955,14.37851 c -4.8,2.18703 -11.0092,-1.6527 -11.0092,-6.80803 0,-5.15533 6.2092,-8.99506 11.0092,-6.80803 2.8301,1.28946 3.59,2.73061 3.59,6.80803 0,4.07743 -0.7599,5.51857 -3.59,6.80803 z m -3.5115,-10.14775 c -1.2949,0.24938 -2.5747,1.59754 -2.8441,2.99592 -0.6003,3.11731 3.9405,5.16365 5.5781,2.51383 1.6841,-2.72493 0.037,-6.04348 -2.734,-5.50975 z m -22.2028,29.42139 c -3.8291,4.86791 -9.1242,4.9687 -13.8297,0.26325 -4.0324,-4.03241 -4.3037,-5.45941 -1.9049,-10.0168 2.2745,-4.3212 4.0738,-5.33009 9.5531,-5.35636 3.1794,-0.0152 5.3847,1.00945 6.9346,3.22232 3.0488,4.35277 2.8627,7.29086 -0.7531,11.88759 z m -3.6452,-9.91538 c -4.2631,-4.26309 -11.7631,2.57172 -7.9128,7.21102 2.1746,2.62027 6.0585,2.81298 8.4521,0.41938 2.3786,-2.37862 2.2011,-4.88993 -0.5393,-7.6304 z m -92.0705,308.55987 c -5.0051,3.93707 -7.1756,3.81554 -11.6431,-0.65191 -4.6261,-4.62614 -4.1954,-10.29534 1.0801,-14.21598 9.8296,-7.30512 20.1981,7.28896 10.563,14.86789 z m -2.0784,-10.92077 c -3.697,-3.34573 -7.9441,-1.35312 -7.9441,3.72714 0,5.08025 4.2471,7.07287 7.9441,3.72713 1.6529,-1.49586 3.0053,-3.17307 3.0053,-3.72713 0,-0.55406 -1.3524,-2.23127 -3.0053,-3.72714 z m 3.2553,-133.00162 c -1.4684,1.32888 -4.7381,2.41615 -7.2659,2.41615 -9.0959,0 -11.8608,-11.7292 -3.9818,-16.89168 8.9138,-5.84057 19.1458,7.3278 11.2477,14.47553 z m -3.2553,-10.07051 c -3.5406,-3.20416 -7.6595,-1.53041 -8.3977,3.41248 -0.6906,4.62416 4.9581,7.15459 8.6046,3.85455 3.5186,-3.18435 3.4979,-3.91423 -0.2069,-7.26703 z m 3.2553,-207.45752 c -3.6214,3.27734 -9.8423,3.04331 -13.3893,-0.50369 -8.4447,-8.44465 2.9456,-20.69887 12.8144,-13.78645 4.0905,2.8651 4.4105,10.81897 0.5749,14.29014 z m -2.6219,-9.96658 c -3.175,-3.17506 -8.4631,-2.28622 -9.0068,1.51388 -0.2361,1.65022 0.7864,4.10054 2.2722,5.44516 2.4461,2.2137 3.0042,2.23276 5.904,0.20165 3.8245,-2.67882 3.9792,-4.01212 0.8306,-7.16069 z m -35.5674,36.11611 c -4.8148,6.12097 -7.8893,7.27683 -14.5705,5.47776 -10.5045,-2.82856 -13.6254,-13.3162 -6.4872,-21.79953 4.9576,-5.89176 14.3562,-6.40155 19.3825,-1.05132 4.8403,5.15228 5.5444,12.45422 1.6752,17.37309 z m -5.062,-14.31026 c -4.372,-4.37202 -6.565,-4.47791 -11.5488,-0.55764 -6.7868,5.33847 -4.3713,14.66663 4.3658,16.85948 2.6297,0.66003 4.6108,-0.0122 7.1975,-2.44218 4.5482,-4.2728 4.5429,-9.30225 -0.014,-13.85966 z m -3.1056,11.58952 c -4.0075,1.53781 -6.2999,0.97505 -7.8536,-1.92792 -0.8283,-1.54775 -1.1192,-3.82211 -0.6464,-5.05415 1.1918,-3.10581 6.1376,-4.41095 8.6895,-2.29307 2.8231,2.34303 2.7042,8.16472 -0.1895,9.27514 z m -3.5304,-6.41344 c -0.803,0 -1.4599,0.65696 -1.4599,1.45992 0,0.80295 0.6569,1.45992 1.4599,1.45992 0.803,0 1.4599,-0.65697 1.4599,-1.45992 0,-0.80296 -0.6569,-1.45992 -1.4599,-1.45992 z m -2.7311,158.40128 c -10.5288,16.95251 -32.6031,17.8887 -44.45692,1.88544 -4.44636,-6.00282 -4.98745,-18.13714 -1.14466,-25.66963 4.66723,-9.14853 11.98598,-13.44376 22.90708,-13.44376 10.2269,0 16.5371,3.30124 22.106,11.56501 4.2981,6.37784 4.5925,19.21616 0.5885,25.66294 z m -1.6923,-18.49387 c -2.0328,-7.31904 -9.8707,-13.91074 -17.988,-15.128 -23.6051,-3.5398 -34.02394,29.27544 -12.7421,40.13262 11.6886,5.96309 22.7845,2.08542 28.9488,-10.11669 3.7574,-7.43751 3.7855,-7.67238 1.7813,-14.88793 z m -5.1615,15.1907 c -5.9292,10.92734 -26.0974,11.2032 -31.00862,0.42412 -0.95928,-2.10538 -1.74415,-6.8191 -1.74415,-10.47491 0,-5.6127 0.77234,-7.41927 4.96373,-11.61067 4.05014,-4.05012 6.07874,-4.96372 11.02194,-4.96372 8.0796,0 13.7637,3.16537 16.6657,9.28082 2.9285,6.17148 2.963,12.07035 0.1014,17.34436 z m -6.4906,-18.61136 c -5.7625,-5.52075 -13.3101,-5.57036 -18.7572,-0.1233 -9.83054,9.83056 0.6671,27.70914 13.4224,22.85961 10.3585,-3.93832 13.0377,-15.35646 5.3348,-22.73631 z m 11.0321,-34.95598 c -1.9708,1.97089 -4.957,3.58344 -6.636,3.58344 -3.7588,0 -10.2194,-6.21326 -10.2194,-9.82823 0,-1.46375 1.0227,-4.12147 2.2727,-5.90604 4.6179,-6.59296 18.1662,-2.43051 18.1662,5.58119 0,1.64241 -1.6126,4.59875 -3.5835,6.56964 z m -3.0904,-10.18151 c -1.2618,-1.26179 -2.8573,-2.29416 -3.5456,-2.29416 -1.6218,0 -5.8396,4.21786 -5.8396,5.83967 0,1.62182 4.2178,5.83968 5.8396,5.83968 1.6219,0 5.8397,-4.21786 5.8397,-5.83968 0,-0.68824 -1.0323,-2.28373 -2.2941,-3.54551 z"
       id="path22"
       transform="translate(1011.4622,778.6558)" /><g
       inkscape:label="0"
       id="g21"
       transform="matrix(6.6145834,0,0,6.6145834,3254.0222,-6942.3883)"
       style="display:inline"><path
         d="m -303.28845,1126.6401 a 9.44882,9.44882 0 0 0 -18.89764,0 9.44882,9.44882 0 0 0 18.89764,0 z"
         style="fill:none;stroke:#000000"
         id="path5" /><path
         d="m 6.632805,1126.6401 a 9.448819,9.448819 0 0 0 -18.897638,0 9.448819,9.448819 0 0 0 18.897638,0 z"
         style="fill:none;stroke:#000000"
         id="path6" /><path
         d="m -303.28845,1379.8685 a 9.44882,9.44882 0 0 0 -18.89764,0 9.44882,9.44882 0 0 0 18.89764,0 z"
         style="fill:none;stroke:#000000"
         id="path7" /><path
         d="m 6.632805,1379.8684 a 9.448819,9.448819 0 0 0 -18.897638,0 9.448819,9.448819 0 0 0 18.897638,0 z"
         style="fill:none;stroke:#000000"
         id="path8" /><path
         d="m 7.937008,1122.5197 -7.559055,-7.5591 H -316.7244 l -7.55906,7.5591 v 260.7874 l 7.55905,7.559 H 0.377953 l 7.559055,-7.559 z"
         style="fill:none;stroke:#000000"
         id="path9" /><path
         style="fill:none;stroke:#000000"
         d="m 7.93701,1383.31 -7.559057,7.56"
         id="path10" /><path
         style="fill:none;stroke:#000000"
         d="m -316.724,1390.87 -7.559,-7.56"
         id="path11" /><path
         style="fill:none;stroke:#000000"
         d="m -324.283,1122.52 7.559,-7.56"
         id="path12" /><path
         style="fill:none;stroke:#000000"
         d="m 0.377953,1114.96 7.559057,7.56"
         id="path13" /><path
         d="m 6.632805,1379.8684 a 9.448819,9.448819 0 0 0 -18.897638,0 9.448819,9.448819 0 0 0 18.897638,0 z"
         style="fill:none;stroke:#000000"
         id="path14" /><path
         d="m -303.28845,1379.8685 a 9.44882,9.44882 0 0 0 -18.89764,0 9.44882,9.44882 0 0 0 18.89764,0 z"
         style="fill:none;stroke:#000000"
         id="path15" /><path
         d="m -303.28845,1126.6401 a 9.44882,9.44882 0 0 0 -18.89764,0 9.44882,9.44882 0 0 0 18.89764,0 z"
         style="fill:none;stroke:#000000"
         id="path16" /><path
         d="m 6.632805,1126.6401 a 9.448819,9.448819 0 0 0 -18.897638,0 9.448819,9.448819 0 0 0 18.897638,0 z"
         style="fill:none;stroke:#000000"
         id="path17" /><path
         d="m 0.913678,1126.6401 a 3.729692,3.729692 0 0 0 -7.459384,0 3.729692,3.729692 0 0 0 7.459384,0 z"
         style="fill:none;stroke:#000000"
         id="path18" /><path
         d="m -308.96574,1126.6401 a 3.771538,3.771538 0 0 0 -7.54307,0 3.771538,3.771538 0 0 0 7.54307,0 z"
         style="fill:none;stroke:#000000"
         id="path19" /><path
         d="m -308.93195,1379.8685 a 3.805327,3.805327 0 0 0 -7.61065,0 3.805327,3.805327 0 0 0 7.61065,0 z"
         style="fill:none;stroke:#000000"
         id="path20" /><path
         d="m 0.963513,1379.8684 a 3.779528,3.779528 0 0 0 -7.559055,0 3.779528,3.779528 0 0 0 7.559055,0 z"
         style="fill:none;stroke:#000000"
         id="path21" /></g></g><g
     inkscape:groupmode="layer"
     id="layer3"
     inkscape:label="Right"><path
       style="fill:#000000"
       d="m 1431.2807,3341.4072 v -33.5006 h 18.5135 18.5135 v 7.0528 7.0527 h -10.5792 c -10.5393,0 -10.5791,0.02 -10.5791,5.2016 0,5.0956 0.2066,5.2124 10.1383,5.7304 l 10.1384,0.5288 0.5472,6.612 0.5472,6.6119 h -10.6855 -10.6856 v 7.0528 7.0527 h 9.7544 c 8.1294,0 9.9707,0.5848 11.053,3.5107 1.0802,2.9201 2.6957,1.1166 9.6049,-10.7235 l 8.3062,-14.234 -7.8985,-13.6937 c -4.3442,-7.5316 -7.8985,-14.6076 -7.8985,-15.7245 0,-1.2603 3.3315,-2.0307 8.7821,-2.0307 8.7033,0 8.8204,0.075 13.0356,8.3693 l 4.2534,8.3693 4.0661,-8.3693 4.0661,-8.3693 h 27.7409 c 26.5715,0 27.7901,0.155 28.908,3.6772 l 1.1671,3.6771 4.1315,-3.8813 c 9.1206,-8.5684 29.6672,-5.3696 35.2846,5.4932 5.4805,10.5982 2.6045,21.7865 -9.3663,36.436 l -6.1233,7.4935 h 8.9948 c 8.1217,0 9.102,0.4275 10.1001,4.4041 2.2996,9.1626 0.9719,9.7015 -23.9043,9.7015 -18.0678,0 -22.9769,-0.5065 -22.9769,-2.3707 0,-1.3039 6.7442,-10.8795 14.9872,-21.279 15.3595,-19.3782 17.9562,-25.7698 11.8065,-29.061 -4.0513,-2.1682 -6.6922,-0.5092 -9.0464,5.6828 -1.6944,4.4566 -2.5672,4.864 -9.3671,4.3721 -6.9688,-0.5041 -7.4751,-0.885 -7.1666,-5.3912 0.3017,-4.4069 -0.2162,-4.8488 -5.6833,-4.8488 h -6.0151 l -0.488,26.0071 -0.4879,26.0071 -7.4936,0.5422 -7.4935,0.5421 v -26.5492 -26.5493 h -5.1454 c -2.83,0 -6.2235,-0.4137 -7.5411,-0.9193 -1.5321,-0.5879 -4.4137,2.5938 -7.9929,8.8253 l -5.597,9.7447 8.7302,15.1168 c 4.8016,8.3143 8.7302,16.2444 8.7302,17.6225 0,1.8205 -2.3344,2.5058 -8.5357,2.5058 -8.4277,0 -8.5965,-0.1117 -13.334,-8.816 -2.639,-4.8488 -5.4065,-8.8159 -6.15,-8.8159 -0.7435,0 -3.2099,3.9671 -5.4809,8.8159 l -4.1292,8.816 h -27.0281 -27.028 z m 33.5006,27.3295 c 0,-2.0561 -2.3472,-2.6448 -10.5456,-2.6448 -9.5926,0 -10.6393,-0.3736 -11.5834,-4.1352 -0.5708,-2.2744 -0.7843,-7.2334 -0.4744,-11.02 l 0.5635,-6.8847 10.1384,-0.5288 c 7.4382,-0.3879 10.1383,-1.2097 10.1383,-3.0855 0,-1.9226 -2.397,-2.5568 -9.664,-2.5568 -8.7068,0 -9.7682,-0.4155 -10.7168,-4.195 -0.579,-2.3072 -0.7925,-6.4727 -0.4744,-9.2567 0.5607,-4.906 0.9178,-5.078 11.5985,-5.5868 8.2181,-0.3914 11.0199,-1.1759 11.0199,-3.0856 0,-2.0253 -2.9487,-2.5606 -14.1055,-2.5606 h -14.1056 v 29.0926 29.0927 h 14.1056 c 11.3628,0 14.1055,-0.5143 14.1055,-2.6448 z m 22.4912,-9.2567 c 3.3201,-6.061 6.9571,-11.0189 8.0822,-11.0176 1.1251,0 4.8227,5.1575 8.2168,11.4584 4.8985,9.0934 7.0252,11.4565 10.3125,11.4583 l 4.1414,0 -3.9179,-6.612 c -2.1549,-3.6366 -6.2726,-10.7712 -9.1506,-15.8548 l -5.2327,-9.2428 7.2132,-12.5111 c 3.9673,-6.8812 7.2133,-12.8382 7.2133,-13.2379 0,-0.3997 -1.5736,-0.7267 -3.4967,-0.7267 -2.4249,0 -4.866,2.7022 -7.9641,8.8159 -2.4571,4.8488 -5.5085,8.816 -6.7811,8.816 -1.2725,0 -4.1718,-3.9672 -6.4428,-8.816 -3.2386,-6.9144 -5.0248,-8.8159 -8.2814,-8.8159 -4.0837,0 -4.0321,0.2186 3.1256,13.2603 l 7.2776,13.2603 -6.9901,11.8652 c -11.9022,20.203 -11.8902,20.1711 -7.3184,19.4993 2.7706,-0.4071 5.7664,-3.885 9.9932,-11.6013 z m 55.0892,-14.5464 v -26.4478 h 7.0528 c 5.0936,0 7.0527,-0.7347 7.0527,-2.6448 0,-2.1653 -3.0366,-2.6448 -16.7503,-2.6448 -13.7137,0 -16.7503,0.4795 -16.7503,2.6448 0,1.9101 1.9591,2.6448 7.0528,2.6448 h 7.0527 v 26.4478 c 0,22.3338 0.4114,26.4479 2.6448,26.4479 2.2334,0 2.6448,-4.1141 2.6448,-26.4479 z m 58.1853,23.8031 c 0,-2.057 -2.3509,-2.6448 -10.5791,-2.6448 -13.2676,0 -13.5572,-1.8838 -2.39,-15.5468 14.1114,-17.2653 15.4314,-24.4784 6.27,-34.2633 -4.8865,-5.2192 -14.8992,-6.6246 -21.6096,-3.0333 -3.355,1.7955 -8.7183,10.3869 -8.7183,13.9657 0,4.2116 6.3499,1.3897 8.816,-3.9178 2.1758,-4.6829 3.7874,-5.7875 9.0892,-6.2295 5.0701,-0.4227 7.0442,0.319 9.2567,3.4779 5.5638,7.9434 3.0483,13.9829 -15.0478,36.1289 -5.693,6.9671 -10.3509,13.1265 -10.3509,13.6876 0,0.5611 7.9344,1.0202 17.6319,1.0202 14.4974,0 17.6319,-0.4702 17.6319,-2.6448 z"
       id="path24" /><g
       inkscape:label="0"
       id="g9"
       transform="matrix(6.6145834,0,0,6.6145834,1126.3769,-3596.6934)"
       style="display:inline"><path
         d="m -0.377953,1029.5055 v 9.4488 h 35.269381 v 35.3386 h 48.522853 v -35.3386 H 316.7244 v -9.4488 z"
         style="fill:none;stroke:#000000"
         id="path5-3" /><path
         style="fill:none;stroke:#000000"
         d="M -0.377953,1029.51 H 316.724"
         id="path6-6" /><path
         style="fill:none;stroke:#000000"
         d="M 316.724,1038.95 H 83.4143"
         id="path7-3" /><path
         style="fill:none;stroke:#000000"
         d="M 83.4143,1074.29 H 34.8914"
         id="path8-0" /><path
         style="fill:none;stroke:#000000"
         d="M 34.8914,1038.95 H -0.377953"
         id="path9-8" /></g></g><g
     inkscape:groupmode="layer"
     id="layer4"
     inkscape:label="Left"><g
       inkscape:label="0"
       id="g8"
       transform="matrix(6.6145834,0,0,6.6145834,3218.8769,-1577.4285)"
       style="display:inline"><path
         d="M -215.54147,1038.9543 H 0.377953 v -9.4488 H -316.72441 v 9.4488 h 52.8107 v 35.3386 h 48.37224 z"
         style="fill:none;stroke:#000000"
         id="path5-4" /><path
         d="M -316.72441,1029.5055 H 0.377953 v 9.4488 H -316.72441 Z"
         style="fill:none;stroke:#000000"
         id="path6-2" /><path
         d="m -215.54147,1038.9543 h -48.37224 v 35.3386 h 48.37224 z"
         style="fill:none;stroke:#000000"
         id="path7-1" /><path
         d="m -263.91371,1038.9543 h -52.8107 v -9.4488 h 52.8107 z"
         style="fill:none;stroke:#000000"
         id="path8-9" /></g><path
       style="fill:#000000;stroke-width:1.17053"
       d="m 1541.5798,5358.9431 v -38.8545 h 21.4723 21.4723 v 8.1799 8.1799 h -12.27 c -12.2237,0 -12.2698,0.022 -12.2698,6.0329 0,5.91 0.2396,6.0454 11.7586,6.6461 l 11.7586,0.6134 0.6348,7.6686 0.6346,7.6687 h -12.3933 -12.3933 v 8.1799 8.1798 h 11.3133 c 9.4287,0 11.5642,0.6784 12.8195,4.0717 1.2528,3.3869 3.1264,1.2951 11.1399,-12.4372 l 9.6336,-16.5089 -9.1607,-15.882 c -5.0386,-8.7352 -9.1609,-16.9421 -9.1609,-18.2374 0,-1.4619 3.8639,-2.3554 10.1857,-2.3554 10.0941,0 10.23,0.088 15.1188,9.7069 l 4.9331,9.7068 4.716,-9.7068 4.7159,-9.7069 h 32.1743 c 30.3782,0 32.2467,0.2284 33.4724,4.09 2.4308,7.6588 -0.6745,12.2698 -8.263,12.2698 h -6.965 l -0.5659,30.1634 -0.5659,30.1633 -8.6911,0.6289 -8.6912,0.6289 v -30.7923 -30.7922 h -5.9677 c -3.2822,0 -7.2181,-0.4798 -8.7463,-1.0663 -1.7769,-0.6818 -5.119,3.0084 -9.2702,10.2358 l -6.4915,11.3021 10.1254,17.5326 c 5.569,9.643 10.1254,18.8405 10.1254,20.4389 0,2.1113 -2.7074,2.9062 -9.8999,2.9062 -9.7745,0 -9.9703,-0.1296 -15.4649,-10.2249 -3.0608,-5.6237 -6.2706,-10.2249 -7.1328,-10.2249 -0.8623,0 -3.7229,4.6012 -6.3569,10.2249 l -4.7891,10.2249 h -31.3476 -31.3475 z m 38.8546,31.6972 c 0,-2.3847 -2.7223,-3.0675 -12.2309,-3.0675 -11.1257,0 -12.3396,-0.4334 -13.4347,-4.7961 -0.662,-2.6379 -0.9096,-8.3894 -0.5501,-12.7811 l 0.6535,-7.985 11.7586,-0.6132 c 8.627,-0.45 11.7586,-1.4032 11.7586,-3.5788 0,-2.2299 -2.7801,-2.9654 -11.2084,-2.9654 -10.0984,0 -11.3293,-0.4818 -12.4295,-4.8653 -0.6716,-2.676 -0.9192,-7.5072 -0.5503,-10.7362 0.6503,-5.69 1.0645,-5.8895 13.4521,-6.4796 9.5315,-0.454 12.7811,-1.3639 12.7811,-3.5787 0,-2.349 -3.42,-2.9698 -16.3599,-2.9698 h -16.3597 v 33.7421 33.742 h 16.3597 c 13.1788,0 16.3599,-0.5964 16.3599,-3.0674 z m 26.0857,-10.7362 c 3.8506,-7.0296 8.0688,-12.7798 9.3737,-12.7783 1.3049,0 5.5935,5.9817 9.53,13.2896 5.6813,10.5467 8.148,13.2875 11.9606,13.2896 h 4.8032 l -4.544,-7.6686 c -2.4992,-4.2178 -7.2751,-12.4927 -10.6129,-18.3887 l -6.069,-10.7199 8.366,-14.5107 c 4.6012,-7.9807 8.366,-14.8898 8.366,-15.3534 0,-0.4636 -1.825,-0.8428 -4.0555,-0.8428 -2.8125,0 -5.6437,3.134 -9.2369,10.2248 -2.8498,5.6237 -6.3889,10.2249 -7.8648,10.2249 -1.4759,0 -4.8385,-4.6012 -7.4725,-10.2249 -3.7561,-8.0194 -5.8278,-10.2248 -9.6048,-10.2248 -4.7363,0 -4.6766,0.2535 3.625,15.3794 l 8.4408,15.3796 -8.1073,13.7613 c -13.8042,23.4319 -13.7904,23.3949 -8.4879,22.6157 3.2133,-0.4722 6.6879,-4.506 11.5903,-13.4555 z m 63.8931,-16.871 v -30.6747 h 8.1799 c 5.9078,0 8.18,-0.852 8.18,-3.0674 0,-2.5114 -3.522,-3.0674 -19.4272,-3.0674 -15.9054,0 -19.4274,0.556 -19.4274,3.0674 0,2.2154 2.2722,3.0674 8.18,3.0674 h 8.1799 v 30.6747 c 0,25.903 0.4771,30.6746 3.0675,30.6746 2.5902,0 3.0673,-4.7716 3.0673,-30.6746 z m 38.8546,4.2322 c 0,-30.1063 -0.064,-30.5415 -4.6012,-31.1859 -3.7707,-0.5355 -4.6012,-1.9453 -4.6012,-7.8109 v -7.1574 l 13.8035,-0.6047 13.8036,-0.6046 v 38.9479 38.948 h -9.2023 -9.2024 z m 14.3148,-7.2996 v -33.7421 h -9.2024 c -6.8165,0 -9.2024,0.7952 -9.2024,3.0674 0,1.9086 1.9313,3.0674 5.1125,3.0674 h 5.1124 v 30.6747 c 0,29.3113 0.1818,30.6746 4.0899,30.6746 3.9248,0 4.09,-1.3633 4.09,-33.742 z"
       id="path25" /></g><g
     inkscape:groupmode="layer"
     id="layer5"
     inkscape:label="Front"><path
       style="display:inline;fill:#000000"
       d="m 1951.992,4446.7006 c -4.1543,-0.7503 -7.2476,-4.2157 -7.2476,-8.1194 v -1.9924 h 2.8356 c 2.6504,0 2.8742,0.1108 3.4267,1.6957 1.4712,4.2201 6.6471,3.4287 6.6471,-1.0164 0,-2.0673 -1.8364,-4.0469 -3.7541,-4.0469 -1.128,0 -1.2974,-0.2784 -1.2974,-2.1324 0,-1.9271 0.1889,-2.2006 1.9628,-2.8421 3.1335,-1.1331 3.4302,-5.301 0.4309,-6.0538 -1.1165,-0.2802 -1.7026,-0.068 -2.4884,0.9028 -0.5653,0.6982 -1.0278,1.6203 -1.0278,2.0491 0,0.571 -0.8266,0.7798 -3.0871,0.7798 -3.6226,0 -3.84,-0.5337 -1.8241,-4.4788 1.8729,-3.6655 3.7234,-4.7823 7.9237,-4.7823 3.9786,0 5.944,0.9778 7.6764,3.8191 1.2888,2.1137 1.4453,6.7074 0.299,8.7771 -0.6731,1.2152 -0.6231,1.5547 0.4408,2.9937 1.6022,2.1671 1.6653,7.7317 0.1171,10.3163 -1.895,3.1633 -6.6124,4.9294 -11.0336,4.1309 z m 5.8202,-1.9009 c 0.9933,-0.4233 2.4375,-1.4539 3.2093,-2.2903 1.1892,-1.2889 1.4032,-2.0633 1.4032,-5.0786 0,-3.0031 -0.2144,-3.7861 -1.375,-5.0215 -1.356,-1.4434 -1.3611,-1.487 -0.3697,-3.1652 1.1737,-1.9869 1.372,-5.8842 0.3927,-7.7141 -2.5939,-4.8467 -11.1397,-4.3699 -13.275,0.7405 -1.0649,2.5486 -1.0708,2.5315 0.8757,2.5315 1.2888,0 1.6838,-0.2539 1.6838,-1.0825 0,-1.7845 1.5599,-2.8464 4.181,-2.8464 2.6688,0 3.5012,0.665 4.0088,3.2031 0.4606,2.3031 -0.9886,4.9438 -3.1212,5.6873 -2.109,0.7352 -2.2946,2.3351 -0.2709,2.3351 4.4738,0 5.7452,8.1382 1.5687,10.0411 -2.8432,1.2955 -5.2615,0.4962 -6.6556,-2.1998 -0.6694,-1.2944 -1.244,-1.6672 -2.5694,-1.6672 -1.5146,0 -1.6622,0.1425 -1.3079,1.2628 0.7485,2.3671 2.1522,3.9469 4.4236,4.9786 2.7238,1.2373 4.7736,1.3186 7.1979,0.2856 z m 594.9912,1.9019 c -2.9909,-0.4508 -6.3602,-2.7142 -6.3653,-4.2759 -0.01,-1.7239 1.1369,-4.7143 1.8012,-4.7143 0.3149,0 1.4355,0.7577 2.4903,1.6838 2.5286,2.2201 5.294,2.296 7.2377,0.1987 3.6721,-3.9623 -1.2085,-10.7309 -5.6427,-7.8255 -0.7483,0.4903 -1.8746,0.8915 -2.5029,0.8915 -1.488,0 -1.4667,-1.3594 0.1405,-8.9804 l 1.243,-5.8935 h 6.7353 6.7353 v 2.5258 2.5257 l -4.1932,0.1674 c -2.4809,0.099 -4.3683,0.4429 -4.6219,0.842 -0.8146,1.2815 -0.4409,2.0777 0.9753,2.0777 5.394,0 9.9412,6.073 8.9919,12.0093 -1.0266,6.42 -6.0712,9.8159 -13.0245,8.7677 z m 7.5296,-2.6321 c 2.5684,-1.9176 3.6737,-3.9093 3.9048,-7.0364 0.3847,-5.205 -2.5222,-8.8168 -7.5679,-9.403 l -2.6584,-0.3089 0.1372,-2.2418 c 0.2207,-3.6093 0.2688,-3.6451 4.8967,-3.6451 4.1349,0 4.2272,-0.031 4.2272,-1.4032 0,-1.398 -0.019,-1.4031 -5.3214,-1.4031 -5.0565,0 -5.3362,0.063 -5.6179,1.2628 -0.1631,0.6946 -0.7691,3.611 -1.3466,6.4808 -0.9739,4.839 -0.9805,5.1549 -0.091,4.3499 1.5755,-1.4258 5.8051,-1.1302 7.796,0.545 3.3019,2.7784 2.7012,8.724 -1.079,10.6789 -2.2862,1.1822 -5.7568,0.7996 -7.4866,-0.8255 -1.3125,-1.233 -2.008,-1.0505 -2.008,0.527 0,1.2053 1.6753,2.7217 3.7283,3.3749 2.4476,0.7786 6.8263,0.2873 8.4866,-0.9523 z m -1150.4864,-9.4096 v -11.4706 l -1.8241,-0.1759 c -1.7491,-0.1686 -1.8312,-0.2856 -1.9953,-2.8419 l -0.171,-2.6661 h 5.0822 5.0823 v 14.3126 14.3126 h -3.087 -3.0871 z m 4.9216,-2.7016 -0.1507,-13.0497 -3.7886,-0.166 c -3.7286,-0.1633 -3.7887,-0.1433 -3.7887,1.2629 0,1.2588 0.2339,1.4288 1.9645,1.4288 h 1.9645 v 11.7869 11.7868 h 1.9748 1.9748 z m 258.879,13.2986 c 0,-0.4806 2.7785,-4.4151 6.1743,-8.7435 3.3959,-4.3284 6.3279,-8.4816 6.5156,-9.2293 0.5614,-2.237 -0.2007,-4.1091 -1.8404,-4.5207 -1.9481,-0.4889 -3.1295,0.3134 -3.9072,2.6537 -0.6172,1.8573 -0.7191,1.9107 -3.6483,1.9107 -2.8804,0 -3.0213,-0.069 -3.1931,-1.5656 -0.2518,-2.1939 1.9708,-6.484 3.998,-7.7168 5.9648,-3.6274 14.3013,-0.1474 15.2799,6.3786 0.3463,2.3091 0.1691,3.1299 -1.3277,6.1518 -0.95,1.918 -2.8744,4.7909 -4.2764,6.3842 -1.402,1.5934 -2.5491,3.0346 -2.5491,3.2028 0,0.1682 1.8311,0.38 4.0692,0.4707 l 4.0693,0.1649 0.1711,2.6661 0.1711,2.6661 h -9.8532 c -8.5434,0 -9.8531,-0.1162 -9.8531,-0.8737 z m 17.9609,-1.6521 c 0,-1.3867 -0.056,-1.4032 -4.7709,-1.4032 -3.4661,0 -4.7708,-0.1937 -4.7708,-0.7082 0,-0.3894 1.6447,-2.6785 3.6549,-5.0868 6.0537,-7.2524 7.1455,-10.677 4.6127,-14.4683 -3.4955,-5.2326 -11.5076,-4.9931 -14.1425,0.4228 -1.3123,2.6973 -1.1213,3.5635 0.7856,3.5635 1.2193,0 1.7453,-0.3274 2.0289,-1.2629 1.1624,-3.8328 5.3131,-5.0495 7.858,-2.3035 1.5119,1.6313 1.8283,4.465 0.7315,6.55 -0.5566,1.058 -9.173,12.2908 -11.5964,15.1176 -0.7965,0.9291 -0.3969,0.9822 7.3835,0.9822 h 8.2255 z m 565.2068,0 v -2.5257 h -6.174 -6.1741 v -1.8927 c 0,-1.4011 1.5672,-4.5354 6.0337,-12.0668 l 6.0338,-10.174 2.9331,-7e-4 2.9332,-8e-4 0.1538,9.4014 0.1539,9.4014 1.5435,0.1776 c 1.4251,0.164 1.5436,0.3686 1.5436,2.6661 0,2.3908 -0.066,2.4885 -1.6839,2.4885 -1.6214,0 -1.6838,0.093 -1.6838,2.5257 v 2.5258 h -2.8064 -2.8064 z m 4.5998,-1.2629 c 0.1567,-2.4415 0.3011,-2.681 1.7146,-2.8436 1.0904,-0.1255 1.5435,-0.4962 1.5435,-1.2629 0,-0.8317 -0.3935,-1.0853 -1.6838,-1.0853 h -1.6839 v -9.5417 -9.5417 l -1.8241,0.014 c -1.7687,0.013 -2.0077,0.3265 -7.8579,10.2969 -3.3186,5.6557 -6.0337,10.44 -6.0337,10.6316 0,0.1916 2.7151,0.42 6.0337,0.5077 l 6.0337,0.1593 0.1711,2.666 c 0.1621,2.5262 0.2562,2.6661 1.7934,2.6661 1.5372,0 1.6313,-0.1399 1.7934,-2.6661 z m -10.7738,-6.1045 c 0,-1.5191 5.6304,-11.4354 6.493,-11.4354 0.6486,0 0.8036,1.191 0.8036,6.1741 v 6.174 h -3.6483 c -2.9946,0 -3.6483,-0.1635 -3.6483,-0.9127 z m 6.1661,-4.5597 -0.01,-4.3499 -2.2372,4.1042 c -1.2305,2.2573 -2.2372,4.2147 -2.2372,4.3499 0,0.1351 1.0103,0.2457 2.2451,0.2457 h 2.2451 z m -264.2162,-49.6195 c -0.5055,-0.5056 -0.699,-3.4649 -0.699,-10.6898 v -9.9908 h -1.4032 -1.4032 v 6.7353 6.7354 h -2.8064 -2.8064 v -6.6699 c 0,-6.1978 -0.079,-6.6906 -1.1226,-6.9634 -0.917,-0.2398 -1.1225,-0.7656 -1.1225,-2.8719 0,-2.2041 0.1629,-2.5783 1.1225,-2.5783 0.9865,0 1.1226,-0.3741 1.1226,-3.087 v -3.087 h 2.8064 2.8064 v 3.1679 3.1679 l 8.7281,-0.3992 8.7282,-0.3992 2.1628,2.1628 c 4.8111,4.8111 4.2752,13.2516 -1.07,16.8538 -2.0014,1.3488 -6.8084,1.7539 -8.4461,0.7119 -0.7123,-0.4532 -0.8852,0.088 -1.1226,3.5166 l -0.2806,4.0522 -2.2477,0.1659 c -1.2621,0.093 -2.5541,-0.1406 -2.9467,-0.5332 z m 4.3525,-5.2454 c 0,-2.3153 0.181,-4.2096 0.4022,-4.2096 0.2212,0 1.4463,0.3987 2.7225,0.8861 5.179,1.9779 9.8115,-1.442 10.208,-7.536 0.2456,-3.775 -0.9579,-6.4307 -3.7907,-8.3643 -2.223,-1.5174 -4.3025,-1.5997 -7.0878,-0.2806 -1.5738,0.7453 -2.1313,0.813 -2.311,0.2806 -0.1302,-0.3859 -0.9735,-0.7016 -1.8738,-0.7016 h -1.6371 v 12.0675 12.0674 h 1.6838 1.6839 z m 1.347,-7.2405 c -1.4731,-1.4731 -1.9083,-2.3756 -1.9083,-3.9568 0,-5.7687 5.2695,-8.5964 9.0236,-4.8423 1.3889,1.3889 1.6407,2.0845 1.6407,4.5334 0,2.4488 -0.2518,3.1444 -1.6407,4.5334 -2.3058,2.3058 -4.6292,2.2184 -7.1153,-0.2677 z m 6.6974,-2.1609 c 0.9971,-2.0407 0.9971,-2.169 0,-4.2096 -0.825,-1.6885 -1.3827,-2.1391 -2.8195,-2.2782 -3.6864,-0.357 -5.4675,4.1799 -2.9149,7.425 1.7945,2.2814 4.3672,1.8609 5.7344,-0.9372 z m -17.0249,-0.7016 v -7.016 h 1.6839 c 1.3096,0 1.6838,-0.2495 1.6838,-1.1226 0,-0.8731 -0.3742,-1.1225 -1.6838,-1.1225 -1.6839,0 -1.6839,0 -1.6839,-3.3677 0,-3.3677 0,-3.3677 -1.6838,-3.3677 -1.6838,0 -1.6838,0 -1.6838,3.3677 0,2.9935 -0.1248,3.3677 -1.1226,3.3677 -0.7484,0 -1.1226,0.3742 -1.1226,1.1225 0,0.7484 0.3742,1.1226 1.1226,1.1226 1.0627,0 1.1226,0.3742 1.1226,7.016 v 7.0159 h 1.6838 1.6838 z m -82.8326,8.8315 c -0.5844,-0.3981 -10.9008,-27.611 -10.9008,-28.7545 0,-0.3138 1.4697,-0.5637 3.3146,-0.5637 h 3.3146 l 1.6721,4.6306 c 0.9196,2.5468 2.3659,6.5893 3.2139,8.9833 l 1.5419,4.3529 2.9042,-8.8431 2.9043,-8.843 3.4766,-0.1671 c 2.1677,-0.1042 3.4766,0.056 3.4766,0.4244 0,0.8762 -10.1693,27.689 -10.8123,28.5081 -0.6,0.7645 -3.1361,0.9325 -4.1057,0.2721 z m 4.1549,-4.201 c 0.6075,-1.6207 2.5473,-6.7353 4.3108,-11.3659 1.7635,-4.6305 3.5466,-9.3663 3.9625,-10.5239 l 0.7562,-2.1048 h -1.8987 -1.8988 l -3.2562,9.8223 c -1.8079,5.4537 -3.5556,9.8224 -3.9294,9.8224 -0.6932,0 -1.1264,-1.0475 -5.2804,-12.7691 -2.4367,-6.8756 -2.4367,-6.8756 -4.2624,-6.8756 h -1.8257 l 0.7591,2.1048 c 1.0727,2.9743 7.9396,21.4354 8.6642,23.293 1.0104,2.59 2.6192,2.011 3.8988,-1.4032 z m 32.6529,3.1757 c -2.5438,-1.1001 -5.3969,-3.8555 -6.9208,-6.6837 -1.7477,-3.2437 -1.743,-11.3485 0.01,-14.6315 1.3833,-2.593 5.1093,-6.1714 7.3625,-7.0711 2.6915,-1.0746 9.0985,-0.7859 11.6555,0.5252 8.5362,4.3768 10.7597,16.7432 4.3556,24.2249 -1.1474,1.3404 -3.1105,2.9024 -4.3626,3.4711 -2.8423,1.291 -9.2918,1.3791 -12.0988,0.1651 z m 9.5854,-0.8697 c 7.3624,-2.2058 11.1405,-11.7937 7.5991,-19.2847 -2.3448,-4.96 -6.3103,-7.5883 -11.4133,-7.5649 -7.1441,0.033 -12.6408,6.023 -12.645,13.7801 -0.01,9.3257 7.9286,15.6254 16.4592,13.0695 z m -7.0596,-3.5193 c -5.1787,-2.3017 -7.4071,-9.4781 -4.6306,-14.912 1.8836,-3.6861 3.7169,-4.7823 7.9983,-4.7823 2.7124,0 3.9453,0.2766 5.1506,1.1554 5.7743,4.2101 5.2099,14.9201 -0.9522,18.0684 -2.7881,1.4244 -5.0968,1.568 -7.5661,0.4705 z m 7.6105,-2.4088 c 6.1523,-5.1769 3.3704,-15.8728 -4.1304,-15.8802 -4.5662,0 -7.6897,3.3309 -7.6897,8.2114 0,7.1952 6.9919,11.7315 11.8201,7.6688 z m 13.9414,6.409 c -2.6091,-1.7542 -3.2415,-4.0239 -3.2787,-11.7673 l -0.032,-6.5951 h 3.087 3.0871 v 6.1741 c 0,5.4257 0.136,6.3101 1.1225,7.2966 2.8679,2.8679 4.4903,-0.2339 4.4903,-8.5851 v -4.9442 l 2.9467,0.1696 2.9467,0.1697 -0.04,7.0159 c -0.046,8.1158 -0.764,10.2368 -3.9081,11.5505 -3.053,1.2756 -8.1568,1.0382 -10.4217,-0.4847 z m 8.9831,-0.7258 c 3.2341,-1.294 3.9836,-3.2817 3.9836,-10.5651 v -5.9489 h -1.6839 -1.6838 l -0.01,5.7531 c -0.01,7.2317 -0.555,8.4962 -3.7604,8.7305 -3.4414,0.2515 -4.2071,-1.2058 -4.5375,-8.6353 -0.2537,-5.7045 -0.2928,-5.8483 -1.5897,-5.8483 -1.32,0 -1.3296,0.046 -1.3276,6.3144 0,5.2791 0.1823,6.6099 1.1012,8.1169 1.6911,2.7735 5.6256,3.6355 9.5064,2.0827 z m 41.8698,1.4727 c -0.6174,-0.2554 -1.754,-1.143 -2.5257,-1.9724 -1.3357,-1.4355 -1.412,-1.8854 -1.5865,-9.3533 l -0.1833,-7.8452 2.9897,0.1711 2.9897,0.1712 0.1605,6.1521 c 0.123,4.7154 0.3727,6.3867 1.0692,7.1563 1.1578,1.2794 1.5996,1.2618 2.9798,-0.1184 0.9865,-0.9865 1.1226,-1.8709 1.1226,-7.2966 v -6.1741 h 3.087 3.0871 v 6.7534 c 0,7.7902 -0.6656,10.042 -3.4743,11.7544 -1.9604,1.1953 -7.4575,1.5356 -9.7158,0.6015 z m 8.7701,-1.7473 c 2.2545,-1.2065 2.8753,-3.1258 3.1698,-9.8003 l 0.2842,-6.4391 h -1.7125 -1.7124 l -0.19,6.1167 c -0.2162,6.9608 -0.9472,8.4833 -4.0656,8.4679 -3.4862,-0.017 -4.2629,-1.6452 -4.2629,-8.9349 v -5.6497 h -1.7322 -1.7321 l 0.1886,6.4156 c 0.2136,7.263 0.9705,9.0106 4.4508,10.2759 1.9996,0.7269 5.5176,0.5095 7.3143,-0.4521 z m 17.4508,1.1549 c -2.3506,-1.4332 -2.684,-2.356 -1.5027,-4.1589 1.0651,-1.6256 2.2626,-1.8076 3.874,-0.5888 1.4179,1.0725 3.4726,1.0549 3.8902,-0.033 0.3229,-0.8416 -0.2036,-1.2633 -4.7144,-3.7757 -0.9723,-0.5415 -2.0535,-1.7413 -2.4025,-2.666 -0.4495,-1.1908 -1.0083,-1.6815 -1.9149,-1.6815 -1.2615,0 -1.2801,0.098 -1.2801,6.7353 v 6.7354 h -3.087 -3.0871 v -6.6003 c 0,-5.9925 -0.1033,-6.6649 -1.1225,-7.3014 -0.7835,-0.4893 -1.1226,-1.3089 -1.1226,-2.7133 0,-1.5402 0.2634,-2.0811 1.1226,-2.3058 0.9472,-0.2477 1.1225,-0.7656 1.1225,-3.3152 v -3.0215 h 3.0871 3.087 v 3.087 c 0,2.9484 0.065,3.087 1.4557,3.087 0.9513,0 1.5511,0.3647 1.7309,1.0522 0.256,0.9788 0.3795,0.9554 1.7716,-0.3356 1.3467,-1.2488 1.8756,-1.3664 5.2833,-1.1742 4.5998,0.2593 6.0469,1.2802 5.0174,3.5397 -0.8104,1.7787 -2.1679,2.3529 -3.5388,1.4967 -1.4313,-0.8938 -2.7396,-0.8147 -2.7396,0.1658 0,0.4486 1.1905,1.3423 2.6455,1.9859 3.4897,1.5437 4.4675,2.4989 4.896,4.7829 0.4872,2.597 -0.8678,5.5982 -3.1579,6.9944 -2.4826,1.5137 -6.839,1.5179 -9.3137,0.01 z m 8.8544,-1.6385 c 1.7809,-1.2685 2.6363,-4.0773 1.8004,-5.9118 -0.3671,-0.8057 -1.9418,-1.9988 -3.8733,-2.9348 -2.6533,-1.2857 -3.2874,-1.8614 -3.4318,-3.1158 -0.2373,-2.0614 1.951,-3.1937 4.1955,-2.1709 1.1929,0.5434 1.5853,0.5333 1.9538,-0.05 0.3161,-0.5006 -0.021,-0.943 -1.0717,-1.4066 -4.0188,-1.7731 -7.93,0.2376 -7.9696,4.0973 -0.02,1.9669 1.0701,3.1688 3.9763,4.3831 2.5849,1.08 3.4253,2.1502 3.2027,4.0788 -0.2545,2.2045 -2.5646,2.973 -5.1833,1.7242 -1.5843,-0.7555 -2.0349,-0.787 -2.5408,-0.1774 -0.4674,0.5631 -0.304,0.9447 0.6811,1.5902 2.6272,1.7214 5.7516,1.6813 8.2607,-0.106 z m -14.4656,-5.7931 0.1576,-6.8757 1.8242,-0.1759 c 1.3462,-0.1298 1.8241,-0.4513 1.8241,-1.2273 0,-0.7759 -0.4779,-1.0975 -1.8241,-1.2273 -1.8035,-0.1739 -1.8261,-0.2125 -1.9925,-3.4032 -0.1567,-3.005 -0.2631,-3.2274 -1.5435,-3.2274 -1.2955,0 -1.3752,0.182 -1.3752,3.1396 0,2.6675 -0.1688,3.1837 -1.1226,3.4331 -0.6174,0.1615 -1.1225,0.7398 -1.1225,1.2852 0,0.5454 0.5051,1.1238 1.1225,1.2852 1.0445,0.2732 1.1226,0.7656 1.1226,7.0814 v 6.7879 h 1.3859 1.3859 z m -175.2417,-3.4725 v -11.4706 l -1.8242,-0.1759 c -1.749,-0.1686 -1.8312,-0.2856 -1.9952,-2.8419 l -0.1711,-2.6661 h 5.0823 5.0822 v 14.3126 14.3126 h -3.087 -3.087 z m 4.9215,-2.7016 -0.1507,-13.0497 -3.7886,-0.166 c -3.7286,-0.1633 -3.7886,-0.1433 -3.7886,1.2629 0,1.2588 0.2338,1.4289 1.9645,1.4289 h 1.9644 v 11.7868 11.7868 h 1.9749 1.9748 z m 7.9879,13.3265 c 0,-0.4652 2.7726,-4.3488 6.1615,-8.6302 3.3888,-4.2814 6.4138,-8.4482 6.7222,-9.2594 0.7428,-1.9536 -0.2773,-4.1908 -2.1219,-4.6538 -1.8628,-0.4675 -3.0518,0.3654 -3.8195,2.6757 -0.6172,1.8573 -0.7192,1.9107 -3.6483,1.9107 h -3.0134 l 0.1085,-2.4081 c 0.1993,-4.4218 3.0769,-7.4482 7.8265,-8.2313 3.2059,-0.5285 6.3682,0.4538 8.4677,2.6303 4.5963,4.7651 3.7855,9.9764 -2.7307,17.5508 l -2.8972,3.3677 4.1543,0.2806 4.1544,0.2806 0.171,2.6661 0.1711,2.6661 h -9.8531 c -8.4044,0 -9.8531,-0.1244 -9.8531,-0.8458 z m 18.5221,-1.68 c 0,-1.3867 -0.056,-1.4032 -4.7708,-1.4032 -5.878,0 -6.0586,-0.5046 -1.9167,-5.3564 5.9005,-6.9119 7.2843,-10.9789 5.0067,-14.7144 -3.264,-5.3535 -10.7739,-5.3535 -14.038,0 -1.7102,2.805 -1.49,3.7938 0.845,3.7938 1.5429,0 1.9644,-0.2247 1.9644,-1.0469 0,-0.5758 0.5235,-1.7123 1.1633,-2.5257 2.5793,-3.279 7.8194,-0.9947 7.8151,3.4067 0,2.6402 -0.8735,4.0786 -7.5803,12.5204 l -5.3459,6.7289 h 8.4286 8.4286 z m -477.0861,-8.1385 v -1.6838 h 214.4081 214.4081 v 1.6838 1.6838 H 1630.9901 1416.582 Z m 427.6937,0 c 0,-0.3732 -71.4694,-0.5613 -213.2856,-0.5613 -141.8162,0 -213.2856,0.1881 -213.2856,0.5613 0,0.3732 71.4694,0.5613 213.2856,0.5613 141.8162,0 213.2856,-0.1881 213.2856,-0.5613 z m 229.5626,0 v -1.6838 h 230.6852 230.6852 v 1.6838 1.6838 h -230.6852 -230.6852 z m 460.2479,0 c 0,-0.3733 -76.8951,-0.5613 -229.5627,-0.5613 -152.6675,0 -229.5626,0.188 -229.5626,0.5613 0,0.3733 76.8951,0.5613 229.5626,0.5613 152.6676,0 229.5627,-0.188 229.5627,-0.5613 z"
       id="path23" /><g
       inkscape:label="0"
       id="g15"
       transform="matrix(6.6145834,0,0,6.6145834,1131.2046,-2492.975)"
       style="display:inline"><path
         d="m 234.05681,1072.8945 a 17.952756,17.952756 0 1 0 -35.89751,0 h -6.85029 v -14.9291 H 23.03622 v -19.0111 H 0 v -9.4488 h 260.78741 v 9.4488 h -15.99525 v 33.9402 z"
         style="fill:none;stroke:#000000"
         id="path5-8" /><path
         style="fill:none;stroke:#000000"
         d="M 0,1029.51 H 260.787"
         id="path6-4" /><path
         style="fill:none;stroke:#000000"
         d="M 260.787,1038.95 H 244.792"
         id="path7-0" /><path
         style="fill:none;stroke:#000000"
         d="M 244.792,1072.89 H 234.057"
         id="path8-09" /><path
         style="fill:none;stroke:#000000"
         d="m 198.159,1072.89 h -6.85"
         id="path9-3" /><path
         style="fill:none;stroke:#000000"
         d="m 191.309,1072.89 v -14.92"
         id="path10-7" /><path
         style="fill:none;stroke:#000000"
         d="M 191.309,1057.97 H 23.0362"
         id="path11-5" /><path
         style="fill:none;stroke:#000000"
         d="m 23.0362,1057.97 v -19.02"
         id="path12-7" /><path
         style="fill:none;stroke:#000000"
         d="M 23.0362,1038.95 H 0"
         id="path13-2" /><path
         style="fill:none;stroke:#000000"
         d="m 0,1038.95 v -9.44"
         id="path14-9" /><path
         d="m 234.05681,1072.8945 a 17.952756,17.952756 0 1 0 -35.89751,0"
         style="fill:none;stroke:#000000"
         id="path15-7" /></g></g><g
     inkscape:groupmode="layer"
     id="layer6"
     inkscape:label="Back"><g
       inkscape:label="0"
       id="g7"
       transform="matrix(6.6145834,0,0,6.6145834,2881.7649,-566.48131)"
       style="display:inline"><path
         d="m -235.27558,1057.9654 h 83.16925 v -19.0111 h 6.37356 v 27.2126 h 59.102401 v -27.2126 H 0 v -9.4488 h -260.7874 v 9.4488 h 25.51182 z"
         style="fill:none;stroke:#000000"
         id="path5-37" /><path
         d="M -260.7874,1029.5055 H 0 v 9.4488 h -260.7874 z"
         style="fill:none;stroke:#000000"
         id="path6-5" /><path
         d="m -86.630369,1038.9543 h -59.102401 v 27.2126 h 59.102401 z"
         style="fill:none;stroke:#000000"
         id="path7-02" /></g><path
       style="fill:#000000;stroke-width:1.28586"
       d="m 1599.0564,6393.2115 c 0,-1.3718 1.6524,-5.4222 3.6722,-9.0009 l 3.6722,-6.5067 -4.8155,-9.4207 -4.8155,-9.4204 -0.061,12.1575 -0.061,12.1578 -10.3347,0.7944 c -11.9372,0.9174 -15.4362,-0.2092 -18.8483,-6.0693 -1.2249,-2.1036 -2.3175,-6.095 -2.4283,-8.8698 l -0.2011,-5.0449 -4.8531,10.0732 c -4.1598,8.6342 -5.2814,10.0731 -7.8511,10.0731 -2.502,0 -3.423,-1.0664 -5.5685,-6.4483 l -2.5706,-6.4482 -3.0897,6.7491 c -2.1989,4.803 -3.7607,6.7492 -5.416,6.7492 -3.1647,0 -4.2073,-1.4886 -9.7509,-13.9205 l -4.7938,-10.7499 -0.356,11.4326 -0.3562,11.4326 -10.3302,0.3448 -10.3303,0.3449 -1.9081,-4.8578 c -1.9027,-4.8438 -1.9269,-4.8576 -8.4413,-4.8576 -6.5046,0 -6.5416,0.021 -8.4242,4.8136 -1.8227,4.6404 -2.0895,4.8138 -7.403,4.8138 -3.6347,0 -5.4951,-0.5124 -5.4616,-1.5042 0.028,-0.8275 3.7666,-11.2522 8.3079,-23.1661 l 8.2573,-21.662 4.8004,-0.3637 4.8006,-0.3637 3.5388,9.3895 c 1.9462,5.1642 5.3892,14.4424 7.6508,20.6183 l 4.112,11.229 0.3277,-22.4286 0.3276,-22.4286 5.0878,0.3688 5.0878,0.3688 0.3503,9.2568 0.3502,9.257 4.3968,0.3705 c 4.099,0.3455 4.5759,0.8175 7.0398,6.9643 l 2.6432,6.5938 1.7932,-4.2917 c 0.9862,-2.3605 2.1491,-5.413 2.584,-6.7835 0.8741,-2.7538 3.4542,-4.1702 5.8926,-3.2345 0.8708,0.3343 2.5505,3.2978 3.7329,6.5859 1.1824,3.2882 2.5713,6.2389 3.0864,6.5572 0.5151,0.3185 1.9527,-2.256 3.1947,-5.7211 2.1994,-6.1361 2.3907,-6.3094 7.3649,-6.6698 4.5005,-0.3261 5.1068,-0.071 5.1068,2.1529 v 2.5229 l 2.578,-2.4018 c 2.3243,-2.1655 4.2198,-2.3977 19.2619,-2.3599 l 16.6838,0.043 2.5482,5.9233 c 1.4015,3.2579 2.9155,5.9234 3.3645,5.9234 0.449,0 1.9605,-2.7078 3.3587,-6.0172 2.4519,-5.8037 2.714,-6.0172 7.3884,-6.0172 2.6654,0 5.1819,0.543 5.592,1.2068 0.4986,0.8065 1.4933,0.8065 3.0005,0 2.9387,-1.5728 11.558,-1.5496 14.5264,0.039 5.1315,2.7463 1.4995,9.0333 -4.4769,7.7499 -3.2688,-0.7021 -3.3183,-0.6498 -1.0884,1.1516 1.2848,1.0379 2.9608,1.8871 3.7246,1.8871 2.7776,0 5.3717,4.4359 5.3336,9.1205 -0.041,5.1331 -1.5266,7.7689 -5.5989,9.938 -6.2874,3.3486 -17.228,0.108 -17.228,-5.1025 0,-4.0566 3.1413,-6.4037 6.0986,-4.557 2.8201,1.7613 5.9356,1.8614 5.9356,0.1908 0,-0.6828 -0.9476,-1.5832 -2.1059,-2.001 -5.4567,-1.9686 -8.7254,-5.3854 -8.7774,-9.175 -0.043,-3.1215 -1.7668,-0.4924 -9.3266,14.2222 l -9.2742,18.0515 -5.1146,0.3701 c -4.491,0.3249 -5.1145,0.066 -5.1145,-2.1243 z m 16.5664,-18.7147 c 4.7882,-9.6034 8.7057,-17.7266 8.7057,-18.0516 0,-0.3251 -0.9477,-0.5731 -2.106,-0.5512 -1.3916,0.026 -3.206,2.4756 -5.3487,7.2204 -1.7835,3.9496 -3.9965,7.181 -4.9176,7.181 -0.9212,0 -3.0768,-3.2493 -4.7904,-7.2207 -2.3818,-5.5201 -3.7064,-7.2206 -5.6246,-7.2206 -2.3259,0 -2.1118,0.7909 2.9333,10.8361 l 5.4422,10.8362 -3.6424,7.2154 c -3.2089,6.3571 -3.3875,7.2154 -1.4996,7.2154 1.5559,0 4.5258,-4.7801 10.8481,-17.4604 z m -137.3714,1.8157 1.9261,-4.8137 h 9.3042 9.3042 l 1.5886,4.8137 c 1.088,3.2963 2.2868,4.8138 3.8029,4.8138 1.2179,0 2.2143,-0.4327 2.2143,-0.9615 0,-0.5289 -3.1916,-9.5998 -7.0926,-20.1576 -6.2732,-16.9787 -7.4043,-19.1961 -9.7917,-19.1961 -2.7852,0 -2.7945,0.021 -15.6003,33.9971 -2.3765,6.3057 -2.3765,6.3181 0.018,6.3181 1.6765,0 2.9802,-1.4511 4.3259,-4.8138 z m 4.0716,-9.9955 c 0,-0.8643 1.1423,-4.9543 2.5386,-9.0886 1.8135,-5.3704 3.0729,-7.4134 4.4097,-7.1536 1.9391,0.3771 6.0327,10.3567 6.1962,15.1059 0.086,2.4911 -0.4361,2.7078 -6.5256,2.7078 -4.6437,0 -6.6189,-0.469 -6.6189,-1.5715 z m 8.686,-5.8029 -1.9512,-4.9678 -1.4707,4.0651 c -2.0806,5.7512 -2.0429,5.8702 1.8598,5.8702 h 3.5134 z m 26.2137,-2.2532 c 0,-22.063 -0.085,-22.8652 -2.4069,-22.8652 -2.3224,0 -2.4069,0.8022 -2.4069,22.8652 0,22.0631 0.085,22.8654 2.4069,22.8654 2.3224,0 2.4069,-0.8023 2.4069,-22.8654 z m 21.9123,15.3439 c 4.1633,-10.1593 6.0715,-10.234 9.3553,-0.366 1.4437,4.338 3.0444,7.8875 3.557,7.8875 0.8032,0 12.1094,-23.0404 12.1094,-24.677 0,-0.3274 -0.9526,-0.5952 -2.1168,-0.5952 -1.5153,0 -2.914,2.2229 -4.9222,7.8223 -3.1528,8.7911 -5.4523,9.9237 -7.9397,3.9112 -0.89,-2.1511 -2.5246,-6.0774 -3.6324,-8.7248 l -2.0145,-4.8139 -3.2535,8.413 c -4.3243,11.1819 -6.299,11.4362 -9.8869,1.2733 -2.0437,-5.7893 -3.362,-7.8811 -4.9665,-7.8811 -1.2014,0 -2.1843,0.2408 -2.1843,0.535 0,0.2944 1.9437,4.7621 4.3194,9.9284 2.3757,5.1662 4.7992,10.6118 5.3857,12.1011 1.6641,4.2262 2.8696,3.2888 6.19,-4.8138 z m 53.9042,-5.2952 v -12.2151 l -4.5129,0.027 c -2.4821,0.015 -6.0011,-0.3731 -7.8202,-0.8617 -6.9331,-1.8627 -14.0244,7.0684 -12.4167,15.6381 0.4623,2.4642 2.1254,5.7653 3.6961,7.3358 2.5647,2.5648 3.7814,2.8266 11.9544,2.5733 l 9.0992,-0.2822 z m -18.5851,6.5317 c -1.0303,-1.4711 -1.8734,-4.7203 -1.8734,-7.2206 0,-5.6016 3.3825,-9.3598 8.4242,-9.3598 5.2963,0 8.4239,3.7287 8.4239,10.0428 0,6.4106 -2.6615,9.2122 -8.7514,9.2122 -3.1308,0 -4.8749,-0.7496 -6.2233,-2.6746 z m 11.2515,-3.5133 c 1.5906,-2.834 1.5609,-3.4889 -0.2873,-6.3094 -2.5646,-3.9143 -6.1797,-4.0404 -8.6298,-0.3012 -1.3863,2.1158 -1.5677,3.6276 -0.7072,5.8909 2.0342,5.3507 6.8241,5.7087 9.6243,0.7197 z m 59.3889,6.0317 c 3.292,-4.427 1.8424,-7.8394 -4.6756,-11.0059 -4.4967,-2.1847 -5.3103,-3.1019 -5.0129,-5.6512 0.3128,-2.6806 0.893,-3.027 4.8681,-2.9061 5.7927,0.1762 5.8505,-1.5824 0.087,-2.6636 -3.8512,-0.7225 -4.788,-0.4084 -7.2206,2.4195 -1.5374,1.7873 -2.7952,3.761 -2.7952,4.386 0,1.6117 3.7741,4.9903 8.3164,7.4447 3.1443,1.6992 3.8073,2.7256 3.4979,5.4155 -0.2981,2.5927 -1.093,3.4011 -3.6317,3.6942 -1.7873,0.2062 -4.327,-0.2014 -5.6433,-0.9059 -3.0513,-1.6331 -4.6174,0.493 -1.6621,2.2563 3.9015,2.3278 11.2756,1.0076 13.8716,-2.4835 z m 40.0075,5.5519 c -9.211,-4.9629 -13.2504,-12.9353 -12.4138,-24.5003 0.6641,-9.1815 5.0885,-16.2479 12.1925,-19.4733 5.6203,-2.5517 13.3701,-2.9954 18.4955,-1.0589 6.6497,2.5126 13.5292,11.0594 13.6932,17.0126 l 0.075,2.7676 1.0577,-2.6249 c 0.9747,-2.419 1.9075,-2.6289 11.8956,-2.6762 10.276,-0.049 10.9658,0.1118 13.3072,3.088 2.1295,2.7072 2.4694,4.8563 2.4694,15.6131 v 12.4738 h -4.6903 -4.6902 l -0.4244,-10.1695 c -0.4553,-10.9124 -1.9451,-14.2253 -5.1871,-11.5346 -1.3394,1.1116 -1.8561,3.8173 -1.8561,9.7187 0,11.0251 -0.4925,11.9854 -6.1459,11.9854 h -4.6851 l -0.1234,-9.9283 c -0.086,-6.9882 -0.3849,-8.8346 -1.007,-6.2347 -1.3554,5.6654 -4.6842,10.562 -9.356,13.7632 -5.4738,3.7507 -17.2311,4.6756 -22.6083,1.7783 z m 15.0996,-1.7853 c 3.157,0 10.8042,-6.9983 12.7587,-11.6761 3.7405,-8.9522 0.051,-21.231 -8.0016,-26.6298 -3.4655,-2.3234 -5.3947,-2.7413 -10.8856,-2.3576 -7.8241,0.5467 -11.8392,3.088 -15.7612,9.9758 -5.2186,9.1648 -2.466,22.5134 5.7529,27.8987 3.365,2.2048 9.9434,3.9557 12.2675,3.2652 0.8815,-0.2619 2.6226,-0.4762 3.8693,-0.4762 z m -10.2858,-4.7584 c -5.5214,-2.2839 -8.2931,-7.0104 -8.8025,-15.0107 -0.4678,-7.3476 -0.3194,-7.8403 3.6723,-12.1961 3.6492,-3.982 4.8353,-4.5391 9.6647,-4.5391 6.7354,0 11.3242,2.7897 13.6176,8.2785 5.7813,13.8369 -5.6635,28.633 -18.1521,23.4674 z m 10.296,-3.7014 c 3.1593,-1.6909 5.9513,-7.4381 5.9459,-12.2398 -0.016,-13.9062 -15.9689,-17.534 -21.2739,-4.8377 -4.4018,10.535 5.967,22.0874 15.328,17.0775 z m 25.3828,-1.7098 c 0.2334,-5.5933 0.9658,-10.677 1.6277,-11.2974 2.7911,-2.6158 6.4989,-2.7219 8.9642,-0.2565 2.0776,2.0776 2.4686,3.993 2.4686,12.096 0,8.9773 0.1706,9.6275 2.5265,9.6275 2.412,0 2.5076,-0.4961 2.106,-10.9381 -0.3811,-9.9119 -0.6986,-11.1631 -3.3842,-13.337 -2.2641,-1.8327 -3.8266,-2.1865 -6.6189,-1.4986 -2.0105,0.4953 -5.6861,0.8231 -8.1682,0.7286 l -4.513,-0.172 v 12.6086 c 0,11.5788 0.1865,12.6085 2.2836,12.6085 2.0285,0 2.3307,-1.1347 2.7077,-10.1696 z m -349.174,-3.0682 v -3.6103 h 41.5185 41.5187 v 3.6103 3.6103 h -41.5187 -41.5185 z m 80.6302,0 c 0,-0.7776 -13.8395,-1.2034 -39.1117,-1.2034 -25.2721,0 -39.1116,0.4258 -39.1116,1.2034 0,0.7775 13.8395,1.2034 39.1116,1.2034 25.2722,0 39.1117,-0.4259 39.1117,-1.2034 z m 303.266,0 v -3.6103 h 36.7048 36.7048 v 3.6103 3.6103 h -36.7048 -36.7048 z m 71.0028,0 c 0,-0.7742 -12.2349,-1.2034 -34.298,-1.2034 -22.063,0 -34.2979,0.4292 -34.2979,1.2034 0,0.7741 12.2349,1.2034 34.2979,1.2034 22.0631,0 34.298,-0.4293 34.298,-1.2034 z"
       id="path27" /><path
       style="fill:#000000;stroke-width:1.06129"
       d="m 2048.4271,6368.5238 c -3.8957,-10.6638 -7.0736,-20.0108 -7.0621,-20.7711 0.015,-0.9826 1.4442,-1.289 4.9434,-1.0595 l 4.9225,0.323 3.8181,10.8584 c 2.1,5.972 4.0609,10.8588 4.3577,10.8594 0.2967,7e-4 2.2038,-4.8855 4.2378,-10.8583 l 3.6983,-10.8595 4.5124,-0.3263 c 2.9937,-0.2165 4.6872,0.1401 5.0319,1.0595 0.2857,0.7621 -2.756,9.9674 -6.7594,20.4561 l -7.279,19.0704 -3.6693,0.3183 -3.6693,0.3183 z m 14.7406,9.4818 c 1.5931,-4.2247 4.6818,-12.3296 6.8637,-18.011 3.8876,-10.1226 3.9207,-10.3298 1.6494,-10.3298 -2.0257,0 -2.8408,1.6064 -6.468,12.7476 -3.0904,9.4923 -4.5617,12.6685 -5.762,12.4373 -0.9991,-0.1924 -3.2683,-4.9375 -5.9693,-12.4828 -3.5676,-9.9657 -4.7709,-12.2337 -6.6379,-12.5109 -2.2439,-0.3333 -2.2296,-0.2021 0.8985,8.2108 1.7485,4.7022 4.6211,12.4283 6.3838,17.1691 4.9277,13.2535 5.0715,13.2976 9.0418,2.7697 z m 75.1396,8.3236 c -3.8396,-1.673 -10.0437,-8.4699 -10.0492,-11.0092 0,-1.2323 -0.6393,-0.7943 -1.978,1.3612 -4.8779,7.8541 -9.5777,10.065 -21.3952,10.065 h -8.4069 v -20.2322 -20.2321 l 9.9899,0.3672 c 11.2125,0.4121 13.9403,1.6921 18.5603,8.7103 l 2.5932,3.9393 1.5124,-2.9629 c 4.5807,-8.9739 14.8471,-13.0749 24.3973,-9.7457 3.1305,1.0913 3.3365,1.4839 3.3365,6.3568 0,5.8391 -0.9655,6.3651 -6.1848,3.3697 -4.1591,-2.387 -8.2456,-1.0227 -11.5285,3.8487 -3.4334,5.0948 -3.149,9.7809 0.8716,14.3601 3.6879,4.2003 8.3849,5.0151 11.6863,2.0273 3.0938,-2.7998 5.1554,-1.1084 5.1554,4.2294 0,4.3161 -0.2708,4.7917 -3.3365,5.8604 -4.4376,1.5469 -11.2776,1.4062 -15.2238,-0.3133 z m 15.11,-2.7615 c 0.1495,0 0.2719,-0.9702 0.2719,-2.1562 0,-1.8035 -0.3353,-1.9768 -2.0492,-1.0594 -8.6399,4.6238 -19.3565,-5.1678 -17.5244,-16.0117 1.434,-8.488 9.7071,-14.2414 16.6711,-11.5937 2.5217,0.9588 2.9025,0.8439 2.9025,-0.8757 0,-2.4109 -2.0005,-3.2656 -7.6428,-3.2656 -8.408,0 -15.2488,6.9684 -16.3094,16.6135 -1.2869,11.7032 9.6869,22.1265 20.2371,19.2219 1.7443,-0.4802 3.2937,-0.8731 3.4432,-0.8731 z m -35.7957,-1.9082 c 5.1042,-3.7787 7.4624,-8.5011 7.458,-14.935 -0.011,-11.2862 -6.1811,-17.049 -18.2717,-17.0557 h -7.1514 v 17.6348 17.6349 l 7.6354,-0.6402 c 5.0036,-0.4194 8.564,-1.3277 10.3297,-2.6349 z m -13.7272,-15.0432 v -13.7731 h 3.7606 c 10.1524,0 16.1343,10.131 12.1578,20.5901 -1.3848,3.6422 -7.0638,6.9472 -11.9455,6.9521 h -3.9729 z m 10.2772,8.8894 c 1.2821,-0.7993 2.7932,-3.1262 3.3578,-5.1712 2.0378,-7.3804 -2.2392,-14.3128 -8.8302,-14.3128 h -2.686 v 11.1445 11.1446 l 2.9136,-0.676 c 1.6024,-0.3718 3.9625,-1.3298 5.2448,-2.1291 z m 96.5566,0.788 -8.8333,-11.6322 -0.5298,10.7775 -0.5297,10.7774 -4.13,0.3382 c -2.5879,0.2118 -4.4609,-0.1837 -5.0163,-1.0595 -1.0102,-1.5932 -1.256,-35.8374 -0.2755,-38.3922 0.4059,-1.0581 1.9274,-1.6759 4.127,-1.6759 3.2048,0 4.1935,0.951 12.3354,11.8659 l 8.8514,11.8659 0.3007,-11.3362 0.3006,-11.3361 h 4.7547 4.7546 l -0.2877,20.3946 -0.2877,20.3948 -3.3504,0.325 c -3.1388,0.3045 -3.9087,-0.4098 -12.184,-11.3072 z m -12.5415,-4.9098 c 0,-10.0565 0.3265,-13.2434 1.3567,-13.2434 0.7461,0 5.7999,5.9596 11.2308,13.2434 5.4308,7.2838 10.5415,13.2433 11.357,13.2433 1.2107,0 1.4827,-3.2066 1.4827,-17.4812 0,-14.8325 -0.2408,-17.4812 -1.5893,-17.4812 -1.313,0 -1.5919,1.979 -1.6054,11.3893 -0.017,11.9587 -0.8691,15.3327 -3.3462,13.2501 -0.7729,-0.6497 -5.4575,-6.6816 -10.4106,-13.4042 -12.5011,-16.9676 -12.7135,-16.8721 -12.7135,5.7163 0,17.3046 0.083,18.0109 2.1189,18.0109 2.0059,0 2.1189,-0.7063 2.1189,-13.2433 z m -200.592,14.6559 c -0.3885,-0.3885 -0.7063,-7.5067 -0.7063,-15.8183 0,-14.8651 -0.039,-15.1175 -2.3838,-15.4505 -1.9536,-0.2775 -2.3838,-1.0079 -2.3838,-4.0467 v -3.7081 l 7.1514,-0.3133 7.1514,-0.3133 v 20.1783 20.1783 h -4.0613 c -2.2337,0 -4.3791,-0.3179 -4.7676,-0.7064 z m 6.7099,-18.8938 v -17.4812 h -4.7675 c -3.5315,0 -4.7676,0.412 -4.7676,1.5892 0,0.9888 1.0006,1.5892 2.6486,1.5892 h 2.6487 v 15.892 c 0,15.1857 0.094,15.892 2.1189,15.892 2.0333,0 2.1189,-0.7063 2.1189,-17.4812 z m 10.5947,18.1756 c 0,-0.7835 4.0524,-6.5372 9.0055,-12.7861 9.2292,-11.644 10.7895,-15.4845 7.0943,-17.4621 -2.4238,-1.2971 -4.0206,-0.3077 -5.4127,3.3536 -0.9423,2.4786 -1.7,2.892 -5.301,2.892 -2.3109,0 -4.4894,-0.4658 -4.8412,-1.0351 -1.1283,-1.8255 1.4656,-9.0884 4.1448,-11.6053 5.5909,-5.2525 17.8996,-3.4071 21.3139,3.1954 3.2932,6.3683 1.5649,13.0911 -5.6281,21.8936 l -3.6794,4.5028 h 5.4049 c 4.8801,0 5.4691,0.2568 6.0689,2.6463 1.3818,5.5057 0.584,5.8295 -14.3637,5.8295 -10.8564,0 -13.8062,-0.3044 -13.8062,-1.4246 z m 25.4272,-2.2836 c 0,-1.2361 -1.4127,-1.5892 -6.3568,-1.5892 -7.9723,0 -8.1462,-1.1319 -1.4361,-9.3418 8.4792,-10.3743 9.2723,-14.7085 3.7675,-20.5881 -2.9363,-3.1361 -8.9526,-3.9806 -12.9848,-1.8226 -2.0159,1.0789 -5.2386,6.2412 -5.2386,8.3917 0,2.5306 3.8155,0.835 5.2973,-2.3542 1.3074,-2.8139 2.2758,-3.4775 5.4615,-3.7431 3.0466,-0.254 4.2328,0.1916 5.5622,2.0898 3.3432,4.773 1.8317,8.402 -9.0418,21.7091 -3.4209,4.1864 -6.2197,7.8874 -6.2197,8.2246 0,0.3372 4.7676,0.613 10.5946,0.613 8.7112,0 10.5947,-0.2825 10.5947,-1.5892 z m 139.0313,-16.1569 0.2883,-19.8649 4.5027,-0.3258 4.5028,-0.3257 v 20.1907 20.1908 h -4.791 -4.791 z m 7.1748,0.2649 c 0,-16.7749 -0.086,-17.4812 -2.1189,-17.4812 -2.0333,0 -2.119,0.7063 -2.119,17.4812 0,16.7749 0.086,17.4812 2.119,17.4812 2.0332,0 2.1189,-0.7063 2.1189,-17.4812 z"
       id="path26" /></g></svg>
